<svg xmlns="http://www.w3.org/2000/svg" width="831" height="831" viewBox="0 0 831 831">
  <g id="Group_23" data-name="Group 23" transform="translate(-10500 5101)">
    <circle id="Ellipse_4" data-name="Ellipse 4" cx="415.5" cy="415.5" r="415.5" transform="translate(10500 -5101)" fill="#ffd426"/>
    <g id="woman" transform="translate(10670.745 -4930)">
      <g id="Group_7" data-name="Group 7">
        <g id="Group_6" data-name="Group 6">
          <circle id="Ellipse_2" data-name="Ellipse 2" cx="16" cy="16" r="16" transform="translate(172.259 184.515)" fill="#323232"/>
        </g>
      </g>
      <g id="Group_9" data-name="Group 9">
        <g id="Group_8" data-name="Group 8">
          <circle id="Ellipse_3" data-name="Ellipse 3" cx="16" cy="16" r="16" transform="translate(284.259 184.515)" fill="#323232"/>
        </g>
      </g>
      <g id="Group_11" data-name="Group 11">
        <g id="Group_10" data-name="Group 10">
          <path id="Path_7" data-name="Path 7" d="M432.092,378.275c-.536-1.488-.12-4.1.336-6.864.736-4.528,1.64-10.168-.856-15.856-2.768-6.288-8.2-9.424-12.568-11.944-2.512-1.448-4.888-2.824-5.928-4.3-1.624-2.312-1.264-6.68-.88-11.32.1-1.248.2-2.5.264-3.7.224-3.856.176-9.584-2.784-14.752-3.608-6.3-9.96-9.32-15.1-11.24l-5.608,14.984c2.408.9,5.736,2.32,6.816,4.208.944,1.648.76,4.832.7,5.9-.064,1.088-.16,2.192-.248,3.3-.536,6.584-1.208,14.776,3.752,21.832,3.072,4.368,7.3,6.808,11.024,8.952,2.7,1.56,5.256,3.032,5.912,4.512.6,1.368.152,4.16-.288,6.864-.68,4.208-1.528,9.456.4,14.816,3.256,9.112,12.512,13.12,17.5,15.272l6.36-14.688C438.124,383.075,433.012,380.859,432.092,378.275Z" fill="#323232"/>
        </g>
      </g>
      <g id="Group_13" data-name="Group 13">
        <g id="Group_12" data-name="Group 12">
          <path id="Path_8" data-name="Path 8" d="M141.172,91.043l1.08-15.96c-12.416-.816-16.528,11.16-19.1,18.32-.36,1.008-.712,2-1.072,2.936a19.266,19.266,0,0,1-14.488,11.68c-.7.112-1.416.184-2.12.264a27.677,27.677,0,0,0-8.68,2.016c-9.584,4.312-11.664,13.808-13.336,21.44-.864,3.984-1.688,7.736-3.3,10.112a26.382,26.382,0,0,1-3.768,3.96c-2.672,2.48-6,5.568-7.952,10.048-2.32,5.3-1.936,10.68-1.632,15,.2,2.84.392,5.52-.224,7.288a21.246,21.246,0,0,1-3.4,5.152c-2.872,3.664-6.456,8.216-6.784,14.624a26.175,26.175,0,0,0,1.824,9.9,13.948,13.948,0,0,1,1,4c-.152,1.616-3.384,4.192-5.976,6.264-5.056,4.016-11.968,9.528-11.728,18.808l16-.424c-.04-1.312,3.272-3.944,5.688-5.864,4.984-3.968,11.184-8.9,11.952-17.328.384-4.16-.816-7.7-1.768-10.552a14.7,14.7,0,0,1-1.008-3.992c.064-1.336,1.752-3.488,3.384-5.56a33.785,33.785,0,0,0,5.92-9.76c1.7-4.872,1.368-9.56,1.08-13.688-.208-2.968-.408-5.776.328-7.464.624-1.432,2.352-3.032,4.176-4.728a39.787,39.787,0,0,0,6.12-6.68c3.352-4.936,4.6-10.656,5.7-15.7,1.256-5.752,2.168-9.32,4.272-10.264a15.662,15.662,0,0,1,3.872-.7c.952-.1,1.9-.216,2.84-.36a35.246,35.246,0,0,0,26.9-21.68c.416-1.064.824-2.192,1.232-3.344.88-2.472,2.528-7.072,3.712-7.992A1.1,1.1,0,0,1,141.172,91.043Z" fill="#323232"/>
        </g>
      </g>
      <g id="Group_15" data-name="Group 15">
        <g id="Group_14" data-name="Group 14">
          <path id="Path_9" data-name="Path 9" d="M470.051,419.371a42.169,42.169,0,0,0,5.7-35.36l-.424-1.312a17.308,17.308,0,0,1-.688-2.464,15.2,15.2,0,0,1,1.64-2.752,25.778,25.778,0,0,0,3.84-7.432c2.056-7.136-.832-13.168-3.144-18.016-1.216-2.552-2.376-4.968-2.408-6.7a18.032,18.032,0,0,1,1.456-5.448,41.2,41.2,0,0,0,2.1-7.072c1.376-7.68-.944-14.592-2.992-20.68-1.336-3.96-2.592-7.7-2.632-11.032-.048-3.424,1.128-7.408,2.36-11.632,2.3-7.848,5.16-17.608-.1-26.856a33.676,33.676,0,0,0-4.88-6.288,23.115,23.115,0,0,1-2.7-3.272c-1.888-3.224-.968-8.232.1-14.04,1.336-7.224,2.84-15.416-.792-23.416-1.92-4.232-4.84-7.328-7.424-10.056a28.262,28.262,0,0,1-4.272-5.248c-1.72-3.168-1.784-7.816-1.848-12.736-.1-7.24-.208-15.44-5.5-22.544a70.177,70.177,0,0,0-6.816-7.768c-3.208-3.272-4.832-4.912-6.08-9.7-.416-1.568.12-4.28.632-6.888.992-5.032,2.344-11.928-1.688-18.3-2.752-4.328-6.824-6.48-10.1-8.208-1.52-.808-3.616-1.912-3.992-2.584-.352-.632-.392-2.784-.424-4.464-.16-7.928-.928-18.248-5.584-27.76C408.2,68.707,398.963,61.4,388.707,59.8c-1.488-.232-3.056-.36-4.64-.488-1.744-.136-4.672-.368-5.128-.456a15.514,15.514,0,0,1,.032-3.384,24.868,24.868,0,0,0-.688-9.512c-3.592-11.5-16.888-12.688-28.624-13.744-4.632-.416-14.264-1.28-15.736-3.184a14.3,14.3,0,0,1-.952-3.392A30.366,30.366,0,0,0,330.963,19c-3.64-7.848-12.136-12.568-22.24-12.416-5.824.184-13.68,3.808-23.344,8.528-.656.328-1.28.632-1.864.912a75.546,75.546,0,0,1-13.64-6.256c-5.888-3.2-11.984-6.5-20.136-8.48a30.445,30.445,0,0,0-10.9-1.16c-7.944.9-13.288,6.128-17.584,10.336a39.118,39.118,0,0,1-5.784,5.016c-6.008,3.816-14.248,2.488-23.824.952-4.136-.664-8.416-1.352-12.712-1.616-3.272-.208-7.608-.16-11.672,2.056-4.608,2.5-6.936,6.664-8.64,9.7a20.037,20.037,0,0,1-2.152,3.36c-2.272,2.464-7.264,2.288-14.648,1.744-8.928-.664-20.048-1.48-27.688,7.032-3.048,3.4-4.5,7.384-5.656,10.576a28.491,28.491,0,0,1-1.936,4.56c-2.928,4.92-9.36,6.336-19.608,8.088-8.048,1.376-17.168,2.936-24.672,8.16-10.184,7.1-13.424,17.976-16.272,27.568-1.976,6.7-3.872,13.04-7.816,17.656-5.008,5.848-6.328,11.176-7.5,15.88a43.354,43.354,0,0,1-2.328,7.424c-3.584,8.288-2.4,16.72-1.344,24.168a54.27,54.27,0,0,1,.856,11.48c-.352,4.472-2.152,9.1-4.048,14.008-2.136,5.5-4.344,11.192-5.016,17.656a72.741,72.741,0,0,0,.024,11.592c.32,5.544.592,10.336-1.312,13.736a26.766,26.766,0,0,1-2.488,3.44c-2.568,3.24-5.76,7.264-6.272,13-.456,4.976,1.336,9.072,2.776,12.368l.648,1.512a32.6,32.6,0,0,1-1.184,27.112c-.5.944-1.024,1.872-1.56,2.808-2.144,3.752-4.816,8.424-5.136,14.136-.624,10.92,6.92,18.072,12.992,23.816,3.84,3.64,7.48,7.08,8.536,10.632.712,2.384-4.36,8.432-7.72,12.424-6.264,7.464-14.064,16.744-10.712,27.448,1.968,6.3,6.176,10.768,9.888,14.7,2.7,2.864,5.256,5.576,6.216,8.312a23.817,23.817,0,0,1,.848,3.752,42.808,42.808,0,0,0,1.424,5.768,55.872,55.872,0,0,0-21.5,44.024v32h16v-32a40.045,40.045,0,0,1,40-40H95.9l2.112.256.032-.256h24l118.1,70.856a8,8,0,0,0,8.232,0l118.1-70.856H428.26a40.045,40.045,0,0,1,40,40v32h16v-32A55.7,55.7,0,0,0,470.051,419.371ZM140.475,379.283l-.952-1.176a6,6,0,0,0-.824-.848c-.016-.88,1.28-3.408,2.056-4.92.568-1.128,1.144-2.248,1.632-3.344a31.781,31.781,0,0,0-3.656-31.76c-.68-.9-1.416-1.76-2.16-2.616a15.364,15.364,0,0,1-2.392-3.232,3.9,3.9,0,0,1-.04-2.016,151.951,151.951,0,0,0,38.112,28.952v42.192H145.54A27.312,27.312,0,0,0,140.475,379.283ZM121.923,218.131a52.326,52.326,0,0,0-2.5-10.08c-1.088-3.352-2.024-6.248-1.856-8.728.384-5.944,7.52-10.88,10.576-12.728,2.008-1.216,4.1-2.328,6.168-3.44,5.576-2.976,11.344-6.056,16.28-11,7.064-7.064,10.664-16.08,14.144-24.808,3.832-9.616,7.16-17.912,14.152-21.344,5.784-2.848,13.44-1.824,21.536-.736l3.288.432c16.208,2.016,27.592-.936,34.848-9.032a40.977,40.977,0,0,0,5.048-7.448c.712-1.24,1.408-2.488,2.232-3.648,1.968-2.744,6.184-4.888,11.3-5.72,6.272-1.024,12.7.048,16.64,2.9,3.576,2.384,6.168,8.536,8.672,14.488a86.88,86.88,0,0,0,5.24,11.008c6.048,10.048,16.648,13.632,26,16.792,6.68,2.256,12.984,4.384,16.744,8.416,4.28,4.592,5.776,12.16,7.36,20.16,2.232,11.3,4.768,24.088,16.384,31.192a45.483,45.483,0,0,0,5.024,2.544,19.168,19.168,0,0,1,4.04,2.168c1.5,1.288,2.568,4.08,3.632,7.064,1.848,5.224,5.48,15.128,12.7,21.376a136.291,136.291,0,0,1-88.632,114.12c-.52.192-1.032.384-1.552.568a135.725,135.725,0,0,1-13.5,4c-.392.1-.784.216-1.184.3a135.2,135.2,0,0,1-45.808,2.616c-.16-.016-.312-.048-.472-.064a136.162,136.162,0,0,1-14.72-2.56c-.192-.048-.384-.088-.576-.136a136.1,136.1,0,0,1-29.32-10.592,7.247,7.247,0,0,0-1.128-.392,135.493,135.493,0,0,1-72.4-98.536C117.9,239.619,123.267,229.635,121.923,218.131ZM244.259,471.187l-91.12-54.672h27.12a8,8,0,0,0,8-8V365.859a152.125,152.125,0,0,0,56,10.656c3.872,0,7.68-.3,11.48-.584.968-.072,1.936-.056,2.9-.144,3.688-.344,7.3-.944,10.9-1.552,1.176-.2,2.36-.312,3.536-.544,3.752-.728,7.416-1.672,11.072-2.664.984-.272,1.984-.472,2.968-.768,3.976-1.168,7.856-2.552,11.688-4.04.48-.184.976-.312,1.448-.5v42.8a8,8,0,0,0,8,8h27.12ZM464.772,365.635a14.12,14.12,0,0,1-1.7,2.864c-1.656,2.432-3.92,5.76-4.344,10.224a21.8,21.8,0,0,0,1.4,8.92l.328,1.04a25.743,25.743,0,0,1-2.656,20.352,55.607,55.607,0,0,0-29.544-8.52H384.892l-1.736-5.7a13.589,13.589,0,0,1,.08-2.248,19.625,19.625,0,0,0-.9-9.056c-2.368-6.04-7.816-8.5-11.416-10.12a15.615,15.615,0,0,1-3.664-1.992c-.248-.288-.776-1.744-.184-5,.176-.984.408-1.976.632-2.96a35.741,35.741,0,0,0,1.232-11.3c-.632-7.368-6.032-15.456-14.808-15.936l-.872,15.976a1.609,1.609,0,0,1-.912-.3A3,3,0,0,1,353,353.5a23.612,23.612,0,0,1-.9,6.408c-.272,1.208-.536,2.416-.76,3.624-1.744,9.576,1.168,15.312,3.9,18.432,2.784,3.16,6.288,4.736,9.112,6.008a12.381,12.381,0,0,0,3.024,1.16,15.933,15.933,0,0,1-.088,2.168,22.854,22.854,0,0,0,.216,6.792,14.972,14.972,0,0,0,.792,2.416H316.26V358.323a152.1,152.1,0,0,0,80-133.808h-7.632c-2.856-3.328-5.088-8.776-6.68-13.28-1.368-3.856-3.44-9.68-8.288-13.848a31.058,31.058,0,0,0-7.888-4.624,28.377,28.377,0,0,1-3.24-1.608c-5.632-3.448-7.208-11.416-9.04-20.648-1.856-9.384-3.968-20.024-11.352-27.96-6.5-6.992-15.448-10.008-23.328-12.664-7.72-2.608-14.392-4.856-17.4-9.872a72.873,72.873,0,0,1-4.216-8.976c-3.256-7.752-6.952-16.528-14.28-21.416-7.184-5.2-17.816-7.28-28.344-5.56-9.5,1.552-17.216,5.88-21.744,12.2-1.144,1.6-2.136,3.312-3.12,5.024a27.672,27.672,0,0,1-3.064,4.688c-3.456,3.856-10.5,5.144-20.952,3.84l-3.16-.416c-9.632-1.28-20.544-2.728-30.7,2.232-12.52,6.152-17.536,18.7-21.96,29.784-3.016,7.552-5.856,14.688-10.592,19.424-3.264,3.264-7.752,5.664-12.5,8.2-2.336,1.248-4.664,2.5-6.912,3.856-11.152,6.744-17.64,15.76-18.264,25.376-.36,5.536,1.216,10.408,2.608,14.7a39.233,39.233,0,0,1,1.832,7c1.168,9.968-8.768,19.552-19.136,24.64-20.3,9.96-21.064,20.688-18.136,27.936l14.808-5.912c0-.024.912-3.008,10.376-7.656.68-.336,1.376-.768,2.056-1.144A150.769,150.769,0,0,0,122.8,315.907c-4.7,7.792-6.008,14.984-3.472,21.36a27.18,27.18,0,0,0,5.128,7.744c.52.616,1.056,1.224,1.536,1.864a15.781,15.781,0,0,1,1.8,15.56c-.384.856-.832,1.712-1.272,2.592-2.272,4.448-5.72,11.176-2.5,18.416a20.6,20.6,0,0,0,3.168,4.824l.624.776a11.632,11.632,0,0,1,1.712,10.528l2.648.944H99.2a11.545,11.545,0,0,0-2.368-5.424,12.23,12.23,0,0,0-3.784-3.08c.3-.728.68-1.416,1.048-2.12a38.438,38.438,0,0,0,1.872-4.04,24.084,24.084,0,0,0-7.616-27.032c-.88-.688-1.832-1.32-2.8-1.936a7.757,7.757,0,0,0-1.96-1.088c-.064-.96,1.216-3.7,1.984-5.344L86.6,348.2c3.672-8.384,3.528-16.96-.384-23.52a32.036,32.036,0,0,0-5.7-6.68,12.149,12.149,0,0,1-3.016-3.752,3.689,3.689,0,0,1-2.992,2.168l-1.816-15.9a12.187,12.187,0,0,0-9.712,7.056,16.858,16.858,0,0,0,1,15.712,33.051,33.051,0,0,0,5.448,6.256,19.559,19.559,0,0,1,3.048,3.344c1.192,2.008.992,5.424-.528,8.9l-.872,1.9c-2.248,4.824-5.656,12.112-1.632,19.456,2.016,3.664,5.128,5.688,7.4,7.16.584.384,1.176.76,1.712,1.168a8.106,8.106,0,0,1,2.464,8.7,22.46,22.46,0,0,1-1.144,2.384,32.524,32.524,0,0,0-2.288,5.232A15.5,15.5,0,0,0,78.8,400.531H60.259a55.563,55.563,0,0,0-20.064,3.784c-.032-.16-.064-.3-.088-.456a40.1,40.1,0,0,0-1.5-6.168c-2.08-5.944-6.112-10.224-9.672-14-2.776-2.944-5.392-5.72-6.264-8.5-.728-2.344,4.544-8.624,7.7-12.376,6.224-7.416,13.984-16.648,10.8-27.3-2.28-7.64-7.9-12.968-12.864-17.664-5.12-4.84-8.2-8.024-8.024-11.3.112-1.952,1.536-4.448,3.056-7.1.648-1.128,1.288-2.256,1.872-3.392a48.779,48.779,0,0,0,1.784-40.568l-.784-1.816c-.7-1.624-1.584-3.64-1.5-4.536.088-.984,1.568-2.848,2.872-4.5a42.1,42.1,0,0,0,3.9-5.536c4.192-7.472,3.744-15.448,3.336-22.488a59.069,59.069,0,0,1-.08-9.024c.448-4.328,2.168-8.792,4.008-13.512,2.232-5.768,4.544-11.728,5.088-18.544a67.5,67.5,0,0,0-.968-14.968c-.864-6.12-1.616-11.408.184-15.56a57.822,57.822,0,0,0,3.168-9.936c.984-3.96,1.576-6.352,4.128-9.328,6.16-7.2,8.736-15.856,11.008-23.488,2.408-8.1,4.5-15.1,10.1-19.008,4.56-3.176,11.184-4.312,18.208-5.512,11.136-1.9,23.752-4.056,30.664-15.68a40.734,40.734,0,0,0,3.216-7.272c.808-2.2,1.552-4.28,2.536-5.376,2.216-2.472,7.224-2.3,14.592-1.752,8.88.616,19.928,1.448,27.608-6.888A31.843,31.843,0,0,0,172.6,34.4c.664-1.184,1.776-3.168,2.32-3.464a7.477,7.477,0,0,1,3.064-.144c3.512.216,7.216.816,11.152,1.44,11.152,1.8,23.792,3.832,34.928-3.232a52.469,52.469,0,0,0,8.408-7.1c3.064-3,5.712-5.592,8.176-5.872a17.6,17.6,0,0,1,5.352.816c6.12,1.48,11.048,4.152,16.256,6.984,5.888,3.2,11.984,6.5,20.136,8.472a8.079,8.079,0,0,0,5.144-.472c1.264-.568,2.96-1.392,4.888-2.336,3.8-1.856,13.864-6.776,16.824-6.912,3.216-.208,6.344,1.256,7.224,3.16a18.048,18.048,0,0,1,.864,3.232,25.928,25.928,0,0,0,2.824,8.184c5.272,8.968,17.392,10.048,28.088,11.008,4.664.416,13.328,1.192,14.8,2.576a15.291,15.291,0,0,1-.008,3.656c-.24,3.48-.56,8.24,2.272,12.784,4.392,7.056,12.288,7.68,17.512,8.1,1.168.1,2.344.176,3.448.352,5.024.784,9.92,4.9,12.792,10.76,3.28,6.7,3.832,14.76,3.968,21.288.064,3.2.144,7.584,2.456,11.712,2.688,4.8,7,7.08,10.48,8.912,1.592.848,3.584,1.9,4.056,2.64.616.976,0,4.12-.5,6.64-.784,3.968-1.752,8.9-.424,14.024,2.336,8.912,6.3,12.952,10.152,16.856a56.757,56.757,0,0,1,5.392,6.1c2.192,2.944,2.256,7.7,2.336,13.216.088,6.328.184,13.5,3.776,20.128a41.237,41.237,0,0,0,6.7,8.616c1.888,2,3.672,3.888,4.5,5.7,1.552,3.432.616,8.52-.376,13.9-1.448,7.824-3.08,16.688,1.848,25.056a34.3,34.3,0,0,0,4.72,6,22.065,22.065,0,0,1,2.736,3.344c1.776,3.128.672,7.544-1.352,14.456-1.44,4.92-3.072,10.5-3,16.328.08,5.84,1.872,11.2,3.472,15.928,1.64,4.888,3.064,9.12,2.408,12.752a26.5,26.5,0,0,1-1.376,4.408c-1.128,3.072-2.512,6.888-2.432,11.28.1,5.184,2.24,9.664,3.968,13.272C463.835,361.6,465.147,364.347,464.772,365.635Z" fill="#323232"/>
        </g>
      </g>
      <g id="Group_17" data-name="Group 17">
        <g id="Group_16" data-name="Group 16">
          <path id="Path_10" data-name="Path 10" d="M435.8,283.907a33.336,33.336,0,0,1,1.28-6.288c1.512-5.736,3.408-12.872-.7-19.92-2.248-3.88-5.6-6.2-8.3-8.072-1.344-.936-3.192-2.216-3.5-2.912-.344-.784.032-3.312.32-5.192.984-6.616,1.624-13.72-.416-20.84-2.608-9.12-9.3-15.92-17.464-17.768L403.5,218.523c2.352.528,4.656,3.232,5.608,6.56,1.192,4.192.7,9.24-.064,14.28-.552,3.72-1.32,8.824.92,13.872,2.136,4.784,5.944,7.432,9.016,9.552,1.456,1.008,3.112,2.16,3.576,2.96.768,1.32-.112,4.608-.944,7.784a46.134,46.134,0,0,0-1.8,9.584A25.476,25.476,0,0,0,432.2,306.1l8.128-13.784A9.569,9.569,0,0,1,435.8,283.907Z" fill="#323232"/>
        </g>
      </g>
      <g id="Group_19" data-name="Group 19">
        <g id="Group_18" data-name="Group 18">
          <path id="Path_11" data-name="Path 11" d="M389.931,137.7c-2.632-9.408-5.616-20.072-14.376-27.208a48.91,48.91,0,0,0-11.088-6.336,52.89,52.89,0,0,1-5.832-2.92,22.145,22.145,0,0,1-8.528-9.664c-.536-1.176-.984-2.4-1.44-3.624A37.574,37.574,0,0,0,343.8,78.1c-4.968-6.648-12.544-9.536-18.6-11.312l-3.024-.848c-4.04-1.12-7.848-2.176-10.664-4.056-2.264-1.512-3.9-4.16-3.488-5.664L292.587,52c-2.632,9.632,3.144,18.584,10.04,23.192,4.944,3.3,10.432,4.824,15.264,6.168l2.8.792c3.664,1.08,8.152,2.68,10.28,5.528a24.523,24.523,0,0,1,2.68,5.824c.584,1.592,1.184,3.184,1.88,4.712a38.411,38.411,0,0,0,14.728,16.664,69.572,69.572,0,0,0,7.584,3.856,35.462,35.462,0,0,1,7.592,4.16c4.832,3.936,6.888,11.312,9.072,19.12,2.776,9.92,5.912,21.16,15.8,28.072l9.168-13.112C394.3,153.347,392.275,146.1,389.931,137.7Z" fill="#323232"/>
        </g>
      </g>
    </g>
  </g>
</svg>
