<svg xmlns="http://www.w3.org/2000/svg" width="3508" height="2480" viewBox="0 0 3508 2480">
  <g id="Group_10" data-name="Group 10" transform="translate(-11094 -19630)">
    <rect id="Rectangle_28" data-name="Rectangle 28" width="2480" height="3508" transform="translate(14602 19630) rotate(90)" fill="#fff"/>
    <g id="Group_9" data-name="Group 9">
      <rect id="Rectangle_29" data-name="Rectangle 29" width="50" height="338" transform="translate(11840.082 20782.855) rotate(30)" fill="#ff3500"/>
      <rect id="Rectangle_30" data-name="Rectangle 30" width="50" height="338" transform="matrix(1, 0.017, -0.017, 1, 12362.186, 19689.303)" fill="#029162"/>
      <rect id="Rectangle_31" data-name="Rectangle 31" width="50" height="338" transform="matrix(0.875, -0.485, 0.485, 0.875, 12204.435, 21320.023)" fill="#029162"/>
      <rect id="Rectangle_32" data-name="Rectangle 32" width="50" height="338" transform="translate(13026.082 20574.855) rotate(30)" fill="#ff3500"/>
      <rect id="Rectangle_33" data-name="Rectangle 33" width="50" height="338" transform="translate(14411.781 19725.172) rotate(47)" fill="#029162"/>
      <rect id="Rectangle_34" data-name="Rectangle 34" width="50" height="338" transform="translate(11628.082 19858.855) rotate(30)" fill="#017cfd"/>
      <rect id="Rectangle_35" data-name="Rectangle 35" width="50" height="338" transform="matrix(-0.485, 0.875, -0.875, -0.485, 13996.163, 20738.781)" fill="#017cfd"/>
      <rect id="Rectangle_36" data-name="Rectangle 36" width="50" height="338" transform="translate(13845.082 21295.855) rotate(30)" fill="#ff3500"/>
      <rect id="Rectangle_37" data-name="Rectangle 37" width="50" height="338" transform="matrix(0.995, 0.105, -0.105, 0.995, 11286.035, 21604.025)" fill="#ff3500"/>
    </g>
  </g>
</svg>
