<svg xmlns="http://www.w3.org/2000/svg" width="1962" height="1201" viewBox="0 0 1962 1201">
  <g id="Group_19" data-name="Group 19" transform="translate(2549 -15207)">
    <g id="Rectangle_70" data-name="Rectangle 70" transform="translate(-2549 15207)" fill="#fff" stroke="#707070" stroke-width="1">
      <rect width="1962" height="1201" stroke="none"/>
      <rect x="0.5" y="0.5" width="1961" height="1200" fill="none"/>
    </g>
    <g id="undraw_app_wireframe_9ssu" transform="translate(-1906 15572)">
      <path id="Path_211" data-name="Path 211" d="M302.334,124.847a31.982,31.982,0,0,0-31.946,31.946V739.9a31.982,31.982,0,0,0,31.946,31.945h319.4A31.982,31.982,0,0,0,653.677,739.9V156.793a31.982,31.982,0,0,0-31.946-31.946Z" transform="translate(-221.018 -124.847)" fill="#e6e6e6"/>
      <path id="Path_212" data-name="Path 212" d="M312.775,143a24.264,24.264,0,0,0-24.237,24.237V729.46A24.264,24.264,0,0,0,312.775,753.7H611.29a24.264,24.264,0,0,0,24.237-24.237V167.234A24.264,24.264,0,0,0,611.29,143Z" transform="translate(-221.018 -124.847)" fill="#fff"/>
      <path id="Path_213" data-name="Path 213" d="M606.167,261.494H317.9a5.345,5.345,0,0,1-5.338-5.338V184.649a5.345,5.345,0,0,1,5.338-5.338H606.167a5.345,5.345,0,0,1,5.338,5.338v71.507a5.344,5.344,0,0,1-5.338,5.338ZM317.9,181.446a3.207,3.207,0,0,0-3.2,3.2v71.507a3.206,3.206,0,0,0,3.2,3.2H606.167a3.206,3.206,0,0,0,3.2-3.2V184.649a3.206,3.206,0,0,0-3.2-3.2Z" transform="translate(-221.018 -124.847)" fill="#e6e6e6"/>
      <path id="Path_214" data-name="Path 214" d="M606.167,544.423H317.9a5.345,5.345,0,0,1-5.338-5.338V406.722a5.345,5.345,0,0,1,5.338-5.338H606.167a5.345,5.345,0,0,1,5.338,5.338V539.085a5.345,5.345,0,0,1-5.338,5.338ZM317.9,403.519a3.207,3.207,0,0,0-3.2,3.2V539.085a3.206,3.206,0,0,0,3.2,3.2H606.167a3.207,3.207,0,0,0,3.2-3.2V406.722a3.206,3.206,0,0,0-3.2-3.2Z" transform="translate(-221.018 -124.847)" fill="#e6e6e6"/>
      <path id="Path_215" data-name="Path 215" d="M604.031,372.531H475.912a5.345,5.345,0,0,1-5.338-5.338V295.685a5.345,5.345,0,0,1,5.338-5.338H604.031a5.345,5.345,0,0,1,5.338,5.338v71.507A5.345,5.345,0,0,1,604.031,372.531ZM475.912,292.482a3.207,3.207,0,0,0-3.2,3.2v71.507a3.207,3.207,0,0,0,3.2,3.2H604.031a3.207,3.207,0,0,0,3.2-3.2V295.685a3.206,3.206,0,0,0-3.2-3.2Z" transform="translate(-221.018 -124.847)" fill="#e6e6e6"/>
      <path id="Path_216" data-name="Path 216" d="M446.018,717.384H317.9a5.344,5.344,0,0,1-5.338-5.338V578.614a5.345,5.345,0,0,1,5.338-5.338H446.018a5.345,5.345,0,0,1,5.338,5.338V712.045a5.345,5.345,0,0,1-5.338,5.338ZM317.9,575.411a3.206,3.206,0,0,0-3.2,3.2V712.045a3.206,3.206,0,0,0,3.2,3.2H446.018a3.206,3.206,0,0,0,3.2-3.2V578.614a3.206,3.206,0,0,0-3.2-3.2Z" transform="translate(-221.018 -124.847)" fill="#e6e6e6"/>
      <path id="Path_217" data-name="Path 217" d="M604.031,717.384H475.912a5.344,5.344,0,0,1-5.338-5.338V578.614a5.345,5.345,0,0,1,5.338-5.338H604.031a5.345,5.345,0,0,1,5.338,5.338V712.045a5.344,5.344,0,0,1-5.338,5.338ZM475.912,575.411a3.207,3.207,0,0,0-3.2,3.2V712.045a3.207,3.207,0,0,0,3.2,3.2H604.031a3.206,3.206,0,0,0,3.2-3.2V578.614a3.206,3.206,0,0,0-3.2-3.2Z" transform="translate(-221.018 -124.847)" fill="#e6e6e6"/>
      <circle id="Ellipse_88" data-name="Ellipse 88" cx="21.745" cy="21.745" r="21.745" transform="translate(117.791 301.68)" fill="#6c63ff"/>
      <path id="Path_218" data-name="Path 218" d="M410.776,433.776a3.624,3.624,0,0,0,0,7.248H581.632a3.624,3.624,0,0,0,0-7.248Z" transform="translate(-221.018 -124.847)" fill="#e6e6e6"/>
      <path id="Path_219" data-name="Path 219" d="M410.776,455.521a3.624,3.624,0,1,0,0,7.248H484.3a3.624,3.624,0,0,0,0-7.248Z" transform="translate(-221.018 -124.847)" fill="#e6e6e6"/>
      <path id="Path_220" data-name="Path 220" d="M343.875,490.286c-2.757,0-5,1.626-5,3.624s2.243,3.624,5,3.624H579.6c2.757,0,5-1.626,5-3.624s-2.243-3.624-5-3.624Z" transform="translate(-221.018 -124.847)" fill="#e6e6e6"/>
      <path id="Path_221" data-name="Path 221" d="M343.875,512.031c-2.757,0-5,1.626-5,3.624s2.243,3.624,5,3.624H579.6c2.757,0,5-1.626,5-3.624s-2.243-3.624-5-3.624Z" transform="translate(-221.018 -124.847)" fill="#e6e6e6"/>
      <circle id="Ellipse_89" data-name="Ellipse 89" cx="21.745" cy="21.745" r="21.745" transform="translate(119.926 71.066)" fill="#6c63ff"/>
      <path id="Path_222" data-name="Path 222" d="M412.911,203.162a3.624,3.624,0,1,0,0,7.248H583.768a3.624,3.624,0,0,0,0-7.248Z" transform="translate(-221.018 -124.847)" fill="#e6e6e6"/>
      <path id="Path_223" data-name="Path 223" d="M412.911,224.907a3.624,3.624,0,1,0,0,7.248h73.52a3.624,3.624,0,1,0,0-7.248Z" transform="translate(-221.018 -124.847)" fill="#e6e6e6"/>
      <path id="Path_224" data-name="Path 224" d="M445.9,372.544H325.718L354,323.553a5.776,5.776,0,0,1,10,0l12.083,20.928L396.633,308.9a7.231,7.231,0,0,1,12.525,0Zm-116.489-2.135H442.207l-34.9-60.444a5.1,5.1,0,0,0-8.826,0l-22.394,38.787-13.932-24.131a3.64,3.64,0,0,0-6.3,0Z" transform="translate(-221.018 -124.847)" fill="#e6e6e6"/>
      <path id="Path_225" data-name="Path 225" d="M599.647,372.544H479.46l28.284-48.99a5.776,5.776,0,0,1,10,0l12.083,20.928L550.376,308.9a7.231,7.231,0,0,1,12.525,0Zm-116.489-2.135h112.79l-34.9-60.444a5.1,5.1,0,0,0-8.826,0l-22.394,38.787L515.9,324.621a3.64,3.64,0,0,0-6.3,0Z" transform="translate(-221.018 -124.847)" fill="#e6e6e6"/>
      <path id="Path_226" data-name="Path 226" d="M446.018,372.531H317.9a5.345,5.345,0,0,1-5.338-5.338V295.685a5.345,5.345,0,0,1,5.338-5.338H446.018a5.345,5.345,0,0,1,5.338,5.338v71.507A5.345,5.345,0,0,1,446.018,372.531ZM317.9,292.482a3.206,3.206,0,0,0-3.2,3.2v71.507a3.206,3.206,0,0,0,3.2,3.2H446.018a3.207,3.207,0,0,0,3.2-3.2V295.685a3.206,3.206,0,0,0-3.2-3.2Z" transform="translate(-221.018 -124.847)" fill="#e6e6e6"/>
      <path id="Path_227" data-name="Path 227" d="M345.2,600.792a3.624,3.624,0,0,0,0,7.249h73.52a3.624,3.624,0,1,0,0-7.248Z" transform="translate(-221.018 -124.847)" fill="#e6e6e6"/>
      <path id="Path_228" data-name="Path 228" d="M345.2,622.145a3.624,3.624,0,1,0,0,7.248h73.52a3.624,3.624,0,1,0,0-7.248Z" transform="translate(-221.018 -124.847)" fill="#e6e6e6"/>
      <path id="Path_229" data-name="Path 229" d="M381.959,689.868a22.813,22.813,0,1,1,22.813-22.813A22.813,22.813,0,0,1,381.959,689.868Zm0-43.49a20.677,20.677,0,1,0,20.677,20.677,20.677,20.677,0,0,0-20.677-20.677Z" transform="translate(-221.018 -124.847)" fill="#e6e6e6"/>
      <path id="Path_230" data-name="Path 230" d="M576.732,689.868a3.624,3.624,0,1,0,0-7.248h-73.52a3.624,3.624,0,1,0,0,7.248Z" transform="translate(-221.018 -124.847)" fill="#e6e6e6"/>
      <path id="Path_231" data-name="Path 231" d="M576.732,668.515a3.624,3.624,0,0,0,0-7.248h-73.52a3.624,3.624,0,1,0,0,7.248Z" transform="translate(-221.018 -124.847)" fill="#e6e6e6"/>
      <path id="Path_232" data-name="Path 232" d="M539.971,600.792A22.813,22.813,0,1,1,517.159,623.6a22.813,22.813,0,0,1,22.813-22.813Zm0,43.49A20.678,20.678,0,1,0,519.294,623.6a20.678,20.678,0,0,0,20.677,20.678Z" transform="translate(-221.018 -124.847)" fill="#e6e6e6"/>
      <path id="Path_233" data-name="Path 233" d="M757.569,648.109H0v-2.181H757.964Z" fill="#3f3d56"/>
    </g>
  </g>
</svg>
