<svg xmlns="http://www.w3.org/2000/svg" width="1949" height="1088" viewBox="0 0 1949 1088">
  <g id="Group_22" data-name="Group 22" transform="translate(721 -13973)">
    <g id="Group_20" data-name="Group 20" transform="translate(585 1268)">
      <path id="Path_248" data-name="Path 248" d="M289.174,222.062h-147a17.024,17.024,0,0,0-17,17v231a17.024,17.024,0,0,0,17,17h147a17.024,17.024,0,0,0,17-17v-231A17.024,17.024,0,0,0,289.174,222.062Zm15,248a15.018,15.018,0,0,1-15,15h-147a15.018,15.018,0,0,1-15-15v-231a15.018,15.018,0,0,1,15-15h147a15.018,15.018,0,0,1,15,15Z" transform="translate(-846.174 12896.159)" fill="#3f3d56"/>
      <path id="Path_249" data-name="Path 249" d="M604.174,487.062h-147a17.019,17.019,0,0,1-17-17v-231a17.019,17.019,0,0,1,17-17h147a17.019,17.019,0,0,1,17,17v231A17.019,17.019,0,0,1,604.174,487.062Zm-147-263a15.017,15.017,0,0,0-15,15v231a15.017,15.017,0,0,0,15,15h147a15.017,15.017,0,0,0,15-15v-231a15.017,15.017,0,0,0-15-15Z" transform="translate(-846.174 12896.159)" fill="#3f3d56"/>
      <path id="Path_250" data-name="Path 250" d="M393.174,356.062h-61a1,1,0,0,1,0-2h61a1,1,0,0,1,0,2Z" transform="translate(-846.174 12896.159)" fill="#3f3d56"/>
      <path id="Path_251" data-name="Path 251" d="M380.175,383.487a1,1,0,0,1-.607-1.8l31.823-24.244a3,3,0,0,0,0-4.772l-31.823-24.244a1,1,0,0,1,1.212-1.591L412.6,351.085a5,5,0,0,1,0,7.954L380.78,383.283a.994.994,0,0,1-.605.2Z" transform="translate(-846.174 12896.159)" fill="#3f3d56"/>
      <path id="Path_252" data-name="Path 252" d="M707.174,356.062h-61a1,1,0,0,1,0-2h61a1,1,0,0,1,0,2Z" transform="translate(-846.174 12896.159)" fill="#3f3d56"/>
      <path id="Path_253" data-name="Path 253" d="M694.175,383.487a1,1,0,0,1-.607-1.8l31.823-24.244a3,3,0,0,0,0-4.772l-31.823-24.244a1,1,0,0,1,1.212-1.591L726.6,351.085a5,5,0,0,1,0,7.954L694.78,383.283a.994.994,0,0,1-.605.2Z" transform="translate(-846.174 12896.159)" fill="#3f3d56"/>
      <path id="Path_254" data-name="Path 254" d="M548.674,315.562h-35a8.51,8.51,0,0,1-8.5-8.5v-34a8.509,8.509,0,0,1,8.5-8.5h35a8.51,8.51,0,0,1,8.5,8.5v34A8.51,8.51,0,0,1,548.674,315.562Z" transform="translate(-846.174 12896.159)" fill="#6c63ff"/>
      <path id="Path_255" data-name="Path 255" d="M555.174,315.062a1,1,0,0,1-.707-.293l-48-48a1,1,0,0,1,1.414-1.414l48,48a1,1,0,0,1-.707,1.707Z" transform="translate(-846.174 12896.159)" fill="#fff"/>
      <path id="Path_256" data-name="Path 256" d="M507.174,315.062a1,1,0,0,1-.707-1.707l48-48a1,1,0,0,1,1.414,1.414l-48,48a1,1,0,0,1-.707.293Z" transform="translate(-846.174 12896.159)" fill="#fff"/>
      <path id="Path_257" data-name="Path 257" d="M563.174,368.062h-65a12.5,12.5,0,0,1,0-25h65a12.5,12.5,0,1,1,0,25Zm-65-23a10.5,10.5,0,0,0,0,21h65a10.5,10.5,0,1,0,0-21Z" transform="translate(-846.174 12896.159)" fill="#3f3d56"/>
      <path id="Path_258" data-name="Path 258" d="M563.174,406.062h-65a12.5,12.5,0,0,1,0-25h65a12.5,12.5,0,1,1,0,25Zm-65-23a10.5,10.5,0,0,0,0,21h65a10.5,10.5,0,0,0,0-21Z" transform="translate(-846.174 12896.159)" fill="#3f3d56"/>
      <path id="Path_259" data-name="Path 259" d="M563.174,444.062h-65a12.5,12.5,0,0,1,0-25h65a12.5,12.5,0,1,1,0,25Zm-65-23a10.5,10.5,0,0,0,0,21h65a10.5,10.5,0,0,0,0-21Z" transform="translate(-846.174 12896.159)" fill="#3f3d56"/>
      <path id="Path_260" data-name="Path 260" d="M906.006,209.069,760.989,233.137A17.024,17.024,0,0,0,747,252.691l37.821,227.883a17.024,17.024,0,0,0,19.554,13.987l145.016-24.068a17.024,17.024,0,0,0,13.987-19.554L925.56,223.057a17.024,17.024,0,0,0-19.554-13.987Zm55.4,242.2a15.018,15.018,0,0,1-12.342,17.254L804.049,492.588A15.018,15.018,0,0,1,786.8,480.246L748.975,252.364a15.018,15.018,0,0,1,12.342-17.253l145.016-24.068a15.018,15.018,0,0,1,17.254,12.342Z" transform="translate(-846.174 12896.159)" fill="#3f3d56"/>
      <path id="Path_261" data-name="Path 261" d="M880.46,302.513l-64.123,10.642a12.5,12.5,0,0,1-4.093-24.663l64.123-10.642a12.5,12.5,0,0,1,4.093,24.663Zm-67.889-12.047a10.5,10.5,0,1,0,3.438,20.717l64.123-10.642a10.5,10.5,0,0,0-3.438-20.717Z" transform="translate(-846.174 12896.159)" fill="#ccc"/>
      <path id="Path_262" data-name="Path 262" d="M887.992,347.892l-64.123,10.642a12.5,12.5,0,1,1-4.093-24.663L883.9,323.229a12.5,12.5,0,0,1,4.093,24.663ZM820.1,335.845a10.5,10.5,0,1,0,3.438,20.717l64.123-10.642a10.5,10.5,0,0,0-3.438-20.717Z" transform="translate(-846.174 12896.159)" fill="#ccc"/>
      <path id="Path_263" data-name="Path 263" d="M895.523,393.271,831.4,403.913a12.5,12.5,0,1,1-4.093-24.663l64.123-10.642a12.5,12.5,0,0,1,4.093,24.663Zm-67.889-12.047a10.5,10.5,0,0,0,3.438,20.717L895.2,391.3a10.5,10.5,0,0,0-3.438-20.717Z" transform="translate(-846.174 12896.159)" fill="#ccc"/>
      <path id="Path_264" data-name="Path 264" d="M903.054,438.651l-64.123,10.642a12.5,12.5,0,0,1-4.093-24.663l64.123-10.642a12.5,12.5,0,0,1,4.093,24.663ZM835.166,426.6A10.5,10.5,0,1,0,838.6,447.32l64.123-10.642a10.5,10.5,0,0,0-3.438-20.717Z" transform="translate(-846.174 12896.159)" fill="#ccc"/>
      <path id="Path_265" data-name="Path 265" d="M926.766,236.433,750.182,265.74a1,1,0,1,1-.327-1.973L926.439,234.46a1,1,0,1,1,.327,1.973Z" transform="translate(-846.174 12896.159)" fill="#3f3d56"/>
      <circle id="Ellipse_92" data-name="Ellipse 92" cx="7" cy="7" r="7" transform="translate(-83.81 13136.112)" fill="#6c63ff"/>
      <path id="Path_266" data-name="Path 266" d="M908.793,219.757l-19.73,3.275a1,1,0,1,1-.327-1.973l19.73-3.275a1,1,0,0,1,.327,1.973Z" transform="translate(-846.174 12896.159)" fill="#3f3d56"/>
      <path id="Path_267" data-name="Path 267" d="M909.776,225.676l-19.73,3.275a1,1,0,0,1-.327-1.973l19.73-3.275a1,1,0,1,1,.327,1.973Z" transform="translate(-846.174 12896.159)" fill="#3f3d56"/>
      <path id="Path_268" data-name="Path 268" d="M910.758,231.6l-19.73,3.275a1,1,0,1,1-.327-1.973l19.73-3.275a1,1,0,0,1,.327,1.973Z" transform="translate(-846.174 12896.159)" fill="#3f3d56"/>
      <path id="Path_269" data-name="Path 269" d="M253.174,372.562h-75a8.51,8.51,0,0,1-8.5-8.5v-76a8.509,8.509,0,0,1,8.5-8.5h75a8.509,8.509,0,0,1,8.5,8.5v76a8.51,8.51,0,0,1-8.5,8.5Z" transform="translate(-846.174 12896.159)" fill="#6c63ff"/>
      <path id="Path_270" data-name="Path 270" d="M247.674,429.062h-65a12.5,12.5,0,0,1,0-25h65a12.5,12.5,0,1,1,0,25Zm-65-23a10.5,10.5,0,1,0,0,21h65a10.5,10.5,0,1,0,0-21Z" transform="translate(-846.174 12896.159)" fill="#3f3d56"/>
      <path id="Path_271" data-name="Path 271" d="M259.674,371.062a1,1,0,0,1-.707-.293l-88-88a1,1,0,1,1,1.414-1.414l88,88a1,1,0,0,1-.707,1.707Z" transform="translate(-846.174 12896.159)" fill="#fff"/>
      <path id="Path_272" data-name="Path 272" d="M171.674,371.062a1,1,0,0,1-.707-1.707l88-88a1,1,0,1,1,1.414,1.414l-88,88A1,1,0,0,1,171.674,371.062Z" transform="translate(-846.174 12896.159)" fill="#fff"/>
    </g>
    <g id="Rectangle_117" data-name="Rectangle 117" transform="translate(-721 13973)" fill="#fff" stroke="#707070" stroke-width="1">
      <rect width="1949" height="1088" stroke="none"/>
      <rect x="0.5" y="0.5" width="1948" height="1087" fill="none"/>
    </g>
    <g id="Group_21" data-name="Group 21" transform="translate(585 1268)">
      <path id="Path_248-2" data-name="Path 248" d="M289.174,222.062h-147a17.024,17.024,0,0,0-17,17v231a17.024,17.024,0,0,0,17,17h147a17.024,17.024,0,0,0,17-17v-231A17.024,17.024,0,0,0,289.174,222.062Zm15,248a15.018,15.018,0,0,1-15,15h-147a15.018,15.018,0,0,1-15-15v-231a15.018,15.018,0,0,1,15-15h147a15.018,15.018,0,0,1,15,15Z" transform="translate(-846.174 12896.159)" fill="#3f3d56"/>
      <path id="Path_249-2" data-name="Path 249" d="M604.174,487.062h-147a17.019,17.019,0,0,1-17-17v-231a17.019,17.019,0,0,1,17-17h147a17.019,17.019,0,0,1,17,17v231A17.019,17.019,0,0,1,604.174,487.062Zm-147-263a15.017,15.017,0,0,0-15,15v231a15.017,15.017,0,0,0,15,15h147a15.017,15.017,0,0,0,15-15v-231a15.017,15.017,0,0,0-15-15Z" transform="translate(-846.174 12896.159)" fill="#3f3d56"/>
      <path id="Path_250-2" data-name="Path 250" d="M393.174,356.062h-61a1,1,0,0,1,0-2h61a1,1,0,0,1,0,2Z" transform="translate(-846.174 12896.159)" fill="#3f3d56"/>
      <path id="Path_251-2" data-name="Path 251" d="M380.175,383.487a1,1,0,0,1-.607-1.8l31.823-24.244a3,3,0,0,0,0-4.772l-31.823-24.244a1,1,0,0,1,1.212-1.591L412.6,351.085a5,5,0,0,1,0,7.954L380.78,383.283a.994.994,0,0,1-.605.2Z" transform="translate(-846.174 12896.159)" fill="#3f3d56"/>
      <path id="Path_252-2" data-name="Path 252" d="M707.174,356.062h-61a1,1,0,0,1,0-2h61a1,1,0,0,1,0,2Z" transform="translate(-846.174 12896.159)" fill="#3f3d56"/>
      <path id="Path_253-2" data-name="Path 253" d="M694.175,383.487a1,1,0,0,1-.607-1.8l31.823-24.244a3,3,0,0,0,0-4.772l-31.823-24.244a1,1,0,0,1,1.212-1.591L726.6,351.085a5,5,0,0,1,0,7.954L694.78,383.283a.994.994,0,0,1-.605.2Z" transform="translate(-846.174 12896.159)" fill="#3f3d56"/>
      <path id="Path_254-2" data-name="Path 254" d="M548.674,315.562h-35a8.51,8.51,0,0,1-8.5-8.5v-34a8.509,8.509,0,0,1,8.5-8.5h35a8.51,8.51,0,0,1,8.5,8.5v34A8.51,8.51,0,0,1,548.674,315.562Z" transform="translate(-846.174 12896.159)" fill="#6c63ff"/>
      <path id="Path_255-2" data-name="Path 255" d="M555.174,315.062a1,1,0,0,1-.707-.293l-48-48a1,1,0,0,1,1.414-1.414l48,48a1,1,0,0,1-.707,1.707Z" transform="translate(-846.174 12896.159)" fill="#fff"/>
      <path id="Path_256-2" data-name="Path 256" d="M507.174,315.062a1,1,0,0,1-.707-1.707l48-48a1,1,0,0,1,1.414,1.414l-48,48a1,1,0,0,1-.707.293Z" transform="translate(-846.174 12896.159)" fill="#fff"/>
      <path id="Path_257-2" data-name="Path 257" d="M563.174,368.062h-65a12.5,12.5,0,0,1,0-25h65a12.5,12.5,0,1,1,0,25Zm-65-23a10.5,10.5,0,0,0,0,21h65a10.5,10.5,0,1,0,0-21Z" transform="translate(-846.174 12896.159)" fill="#3f3d56"/>
      <path id="Path_258-2" data-name="Path 258" d="M563.174,406.062h-65a12.5,12.5,0,0,1,0-25h65a12.5,12.5,0,1,1,0,25Zm-65-23a10.5,10.5,0,0,0,0,21h65a10.5,10.5,0,0,0,0-21Z" transform="translate(-846.174 12896.159)" fill="#3f3d56"/>
      <path id="Path_259-2" data-name="Path 259" d="M563.174,444.062h-65a12.5,12.5,0,0,1,0-25h65a12.5,12.5,0,1,1,0,25Zm-65-23a10.5,10.5,0,0,0,0,21h65a10.5,10.5,0,0,0,0-21Z" transform="translate(-846.174 12896.159)" fill="#3f3d56"/>
      <path id="Path_260-2" data-name="Path 260" d="M906.006,209.069,760.989,233.137A17.024,17.024,0,0,0,747,252.691l37.821,227.883a17.024,17.024,0,0,0,19.554,13.987l145.016-24.068a17.024,17.024,0,0,0,13.987-19.554L925.56,223.057a17.024,17.024,0,0,0-19.554-13.987Zm55.4,242.2a15.018,15.018,0,0,1-12.342,17.254L804.049,492.588A15.018,15.018,0,0,1,786.8,480.246L748.975,252.364a15.018,15.018,0,0,1,12.342-17.253l145.016-24.068a15.018,15.018,0,0,1,17.254,12.342Z" transform="translate(-846.174 12896.159)" fill="#3f3d56"/>
      <path id="Path_261-2" data-name="Path 261" d="M880.46,302.513l-64.123,10.642a12.5,12.5,0,0,1-4.093-24.663l64.123-10.642a12.5,12.5,0,0,1,4.093,24.663Zm-67.889-12.047a10.5,10.5,0,1,0,3.438,20.717l64.123-10.642a10.5,10.5,0,0,0-3.438-20.717Z" transform="translate(-846.174 12896.159)" fill="#ccc"/>
      <path id="Path_262-2" data-name="Path 262" d="M887.992,347.892l-64.123,10.642a12.5,12.5,0,1,1-4.093-24.663L883.9,323.229a12.5,12.5,0,0,1,4.093,24.663ZM820.1,335.845a10.5,10.5,0,1,0,3.438,20.717l64.123-10.642a10.5,10.5,0,0,0-3.438-20.717Z" transform="translate(-846.174 12896.159)" fill="#ccc"/>
      <path id="Path_263-2" data-name="Path 263" d="M895.523,393.271,831.4,403.913a12.5,12.5,0,1,1-4.093-24.663l64.123-10.642a12.5,12.5,0,0,1,4.093,24.663Zm-67.889-12.047a10.5,10.5,0,0,0,3.438,20.717L895.2,391.3a10.5,10.5,0,0,0-3.438-20.717Z" transform="translate(-846.174 12896.159)" fill="#ccc"/>
      <path id="Path_264-2" data-name="Path 264" d="M903.054,438.651l-64.123,10.642a12.5,12.5,0,0,1-4.093-24.663l64.123-10.642a12.5,12.5,0,0,1,4.093,24.663ZM835.166,426.6A10.5,10.5,0,1,0,838.6,447.32l64.123-10.642a10.5,10.5,0,0,0-3.438-20.717Z" transform="translate(-846.174 12896.159)" fill="#ccc"/>
      <path id="Path_265-2" data-name="Path 265" d="M926.766,236.433,750.182,265.74a1,1,0,1,1-.327-1.973L926.439,234.46a1,1,0,1,1,.327,1.973Z" transform="translate(-846.174 12896.159)" fill="#3f3d56"/>
      <circle id="Ellipse_92-2" data-name="Ellipse 92" cx="7" cy="7" r="7" transform="translate(-83.81 13136.112)" fill="#6c63ff"/>
      <path id="Path_266-2" data-name="Path 266" d="M908.793,219.757l-19.73,3.275a1,1,0,1,1-.327-1.973l19.73-3.275a1,1,0,0,1,.327,1.973Z" transform="translate(-846.174 12896.159)" fill="#3f3d56"/>
      <path id="Path_267-2" data-name="Path 267" d="M909.776,225.676l-19.73,3.275a1,1,0,0,1-.327-1.973l19.73-3.275a1,1,0,1,1,.327,1.973Z" transform="translate(-846.174 12896.159)" fill="#3f3d56"/>
      <path id="Path_268-2" data-name="Path 268" d="M910.758,231.6l-19.73,3.275a1,1,0,1,1-.327-1.973l19.73-3.275a1,1,0,0,1,.327,1.973Z" transform="translate(-846.174 12896.159)" fill="#3f3d56"/>
      <path id="Path_269-2" data-name="Path 269" d="M253.174,372.562h-75a8.51,8.51,0,0,1-8.5-8.5v-76a8.509,8.509,0,0,1,8.5-8.5h75a8.509,8.509,0,0,1,8.5,8.5v76a8.51,8.51,0,0,1-8.5,8.5Z" transform="translate(-846.174 12896.159)" fill="#6c63ff"/>
      <path id="Path_270-2" data-name="Path 270" d="M247.674,429.062h-65a12.5,12.5,0,0,1,0-25h65a12.5,12.5,0,1,1,0,25Zm-65-23a10.5,10.5,0,1,0,0,21h65a10.5,10.5,0,1,0,0-21Z" transform="translate(-846.174 12896.159)" fill="#3f3d56"/>
      <path id="Path_271-2" data-name="Path 271" d="M259.674,371.062a1,1,0,0,1-.707-.293l-88-88a1,1,0,1,1,1.414-1.414l88,88a1,1,0,0,1-.707,1.707Z" transform="translate(-846.174 12896.159)" fill="#fff"/>
      <path id="Path_272-2" data-name="Path 272" d="M171.674,371.062a1,1,0,0,1-.707-1.707l88-88a1,1,0,1,1,1.414,1.414l-88,88A1,1,0,0,1,171.674,371.062Z" transform="translate(-846.174 12896.159)" fill="#fff"/>
    </g>
  </g>
</svg>
