<svg xmlns="http://www.w3.org/2000/svg" width="5394" height="3034" viewBox="0 0 5394 3034">
  <g id="Group_25" data-name="Group 25" transform="translate(7525 -17577)">
    <g id="Group_23" data-name="Group 23" transform="translate(-695 -3425)">
      <g id="Rectangle_60" data-name="Rectangle 60" transform="translate(-6830 21002)" fill="#fff" stroke="#707070" stroke-width="1">
        <rect width="5394" height="3034" stroke="none"/>
        <rect x="0.5" y="0.5" width="5393" height="3033" fill="none"/>
      </g>
    </g>
    <g id="Ellipse_98" data-name="Ellipse 98" transform="translate(-4383 19846)" fill="#017cfd" stroke="#707070" stroke-width="1">
      <circle cx="227.5" cy="227.5" r="227.5" stroke="none"/>
      <circle cx="227.5" cy="227.5" r="227" fill="none"/>
    </g>
    <g id="Ellipse_99" data-name="Ellipse 99" transform="translate(-2955 18102)" fill="#fef000" stroke="#707070" stroke-width="1">
      <circle cx="125" cy="125" r="125" stroke="none"/>
      <circle cx="125" cy="125" r="124.5" fill="none"/>
    </g>
    <g id="Ellipse_100" data-name="Ellipse 100" transform="translate(-6912 19412)" fill="#fef000" stroke="#707070" stroke-width="1">
      <circle cx="175" cy="175" r="175" stroke="none"/>
      <circle cx="175" cy="175" r="174.5" fill="none"/>
    </g>
    <g id="Ellipse_101" data-name="Ellipse 101" transform="translate(-6245 18050)" fill="#017cfd" stroke="#707070" stroke-width="1">
      <circle cx="100.5" cy="100.5" r="100.5" stroke="none"/>
      <circle cx="100.5" cy="100.5" r="100" fill="none"/>
    </g>
    <g id="Ellipse_102" data-name="Ellipse 102" transform="translate(-5706 18816)" fill="#ff3500" stroke="#707070" stroke-width="1">
      <circle cx="362" cy="362" r="362" stroke="none"/>
      <circle cx="362" cy="362" r="361.5" fill="none"/>
    </g>
    <g id="Ellipse_103" data-name="Ellipse 103" transform="translate(-4215 18352)" fill="#ff3500" stroke="#707070" stroke-width="1">
      <circle cx="82" cy="82" r="82" stroke="none"/>
      <circle cx="82" cy="82" r="81.5" fill="none"/>
    </g>
    <g id="Ellipse_104" data-name="Ellipse 104" transform="translate(-3258 19026)" fill="#029162" stroke="#707070" stroke-width="1">
      <circle cx="214" cy="214" r="214" stroke="none"/>
      <circle cx="214" cy="214" r="213.5" fill="none"/>
    </g>
  </g>
</svg>
