<svg xmlns="http://www.w3.org/2000/svg" width="1672" height="1086" viewBox="0 0 1672 1086">
  <g id="Group_18" data-name="Group 18" transform="translate(3956 -12941)">
    <g id="Rectangle_52" data-name="Rectangle 52" transform="translate(-3956 12941)" fill="#fff" stroke="#707070" stroke-width="1">
      <rect width="1672" height="1086" stroke="none"/>
      <rect x="0.5" y="0.5" width="1671" height="1085" fill="none"/>
    </g>
    <rect id="Rectangle_53" data-name="Rectangle 53" width="1.999" height="138.039" transform="matrix(0.626, -0.78, 0.78, 0.626, -3311.083, 13557.282)" fill="#e6e6e6"/>
    <rect id="Rectangle_54" data-name="Rectangle 54" width="138.691" height="2.001" transform="translate(-3311.095 13643.683) rotate(-39.097)" fill="#e6e6e6"/>
    <rect id="Rectangle_55" data-name="Rectangle 55" width="2" height="316.241" transform="matrix(0.634, -0.773, 0.773, 0.634, -3040.672, 13331.804)"/>
    <rect id="Rectangle_56" data-name="Rectangle 56" width="316.876" height="2" transform="matrix(0.772, -0.636, 0.636, 0.772, -3040.644, 13531.731)"/>
    <path id="Path_187" data-name="Path 187" d="M1021.164,214.285l-900.2-.489h0l.746,464.47a7.5,7.5,0,0,0,7.5,7.5h885a7.531,7.531,0,0,0,6.03-3.06,6.571,6.571,0,0,0,.95-1.72,7.235,7.235,0,0,0,.52-2.72l-.546-463.981s4.142,0,0,0Zm-2.454,463.981a4.507,4.507,0,0,1-4.5,4.5h-885a4.507,4.507,0,0,1-4.5-4.5l.273-460.206c-.031,0,.185-.041,0,0l893.727-.885c.1.057,0,1.608,0,4.091Z" transform="translate(-3736.71 13022.234)" fill="#029162"/>
    <rect id="Rectangle_57" data-name="Rectangle 57" width="897" height="2" transform="translate(-3612 13274.33)" fill="#e6e6e6"/>
    <path id="Path_190" data-name="Path 190" d="M667.29,398.234h-238a7.008,7.008,0,0,1-7-7v-79a7.008,7.008,0,0,1,7-7h238a7.008,7.008,0,0,1,7,7v79A7.008,7.008,0,0,1,667.29,398.234Zm-238-91a5.006,5.006,0,0,0-5,5v79a5.006,5.006,0,0,0,5,5h238a5.006,5.006,0,0,0,5-5v-79a5.006,5.006,0,0,0-5-5Z" transform="translate(-3736.71 13022.234)"/>
    <path id="Path_191" data-name="Path 191" d="M939.29,625.234h-238a7.008,7.008,0,0,1-7-7v-79a7.008,7.008,0,0,1,7-7h238a7.008,7.008,0,0,1,7,7v79A7.008,7.008,0,0,1,939.29,625.234Z" transform="translate(-3736.71 13022.234)"/>
    <path id="Path_192" data-name="Path 192" d="M530.29,511.234h-101a7.008,7.008,0,0,1-7-7v-79a7.008,7.008,0,0,1,7-7h101a7.008,7.008,0,0,1,7,7v79a7.008,7.008,0,0,1-7,7Zm-101-91a5.006,5.006,0,0,0-5,5v79a5.006,5.006,0,0,0,5,5h101a5.006,5.006,0,0,0,5-5v-79a5.006,5.006,0,0,0-5-5Z" transform="translate(-3736.71 13022.234)"/>
    <path id="Path_193" data-name="Path 193" d="M667.29,511.234h-101a7.008,7.008,0,0,1-7-7v-79a7.008,7.008,0,0,1,7-7h101a7.008,7.008,0,0,1,7,7v79a7.008,7.008,0,0,1-7,7Z" transform="translate(-3736.71 13022.234)"/>
    <path id="Path_194" data-name="Path 194" d="M530.29,624.234h-101a7.008,7.008,0,0,1-7-7v-79a7.008,7.008,0,0,1,7-7h101a7.008,7.008,0,0,1,7,7v79A7.008,7.008,0,0,1,530.29,624.234Zm-101-91a5.006,5.006,0,0,0-5,5v79a5.006,5.006,0,0,0,5,5h101a5.006,5.006,0,0,0,5-5v-79a5.006,5.006,0,0,0-5-5Z" transform="translate(-3736.71 13022.234)" fill="#3f3d56"/>
    <path id="Path_195" data-name="Path 195" d="M667.29,624.234h-101a7.008,7.008,0,0,1-7-7v-79a7.008,7.008,0,0,1,7-7h101a7.008,7.008,0,0,1,7,7v79A7.008,7.008,0,0,1,667.29,624.234Zm-101-91a5.006,5.006,0,0,0-5,5v79a5.006,5.006,0,0,0,5,5h101a5.006,5.006,0,0,0,5-5v-79a5.006,5.006,0,0,0-5-5Z" transform="translate(-3736.71 13022.234)"/>
    <path id="Path_196" data-name="Path 196" d="M938.29,512.234h-238a7.008,7.008,0,0,1-7-7v-193a7.008,7.008,0,0,1,7-7h238a7.008,7.008,0,0,1,7,7v193a7.008,7.008,0,0,1-7,7Zm-238-205a5.006,5.006,0,0,0-5,5v193a5.006,5.006,0,0,0,5,5h238a5.006,5.006,0,0,0,5-5v-193a5.006,5.006,0,0,0-5-5Z" transform="translate(-3736.71 13022.234)" fill="#3f3d56"/>
    <path id="Path_197" data-name="Path 197" d="M977.29,547.234h-238a7.008,7.008,0,0,1-7-7v-193a7.008,7.008,0,0,1,7-7h238a7.008,7.008,0,0,1,7,7v193a7.008,7.008,0,0,1-7,7Z" transform="translate(-3736.71 13022.234)" fill="#017cfd"/>
    <path id="Path_198" data-name="Path 198" d="M885.443,499.734H763.938a2.479,2.479,0,0,1-.454-.036l57.466-99.54a4.024,4.024,0,0,1,7,0l38.567,66.8,1.848,3.2Z" transform="translate(-3736.71 13022.234)" fill="#fff"/>
    <path id="Path_199" data-name="Path 199" d="M763.733,285.968H722.248l20.365-29.581,1.466-2.131.733-1.065,1.848,3.2Z" transform="translate(-3615 13236)" opacity="0.2" style="isolation: isolate"/>
    <path id="Path_200" data-name="Path 200" d="M953.1,499.734H848l20.365-29.581,1.466-2.131,26.537-38.549a5.37,5.37,0,0,1,7.971-.476,4.806,4.806,0,0,1,.382.477Z" transform="translate(-3736.71 13022.234)" fill="#fff"/>
    <circle id="Ellipse_78" data-name="Ellipse 78" cx="18" cy="18" r="18" transform="translate(-2880.82 13409.968)" fill="#fff"/>
    <rect id="Rectangle_58" data-name="Rectangle 58" width="22" height="22" transform="translate(-2991.42 13376.468)" fill="#3f3d56"/>
    <path id="Path_201" data-name="Path 201" d="M558.29,646.234h-101a7.008,7.008,0,0,1-7-7v-79a7.008,7.008,0,0,1,7-7h101a7.008,7.008,0,0,1,7,7v79A7.008,7.008,0,0,1,558.29,646.234Z" transform="translate(-3736.71 13022.234)" fill="#6c63ff"/>
    <path id="Path_202" data-name="Path 202" d="M519.121,623.1H468.416a1.043,1.043,0,0,1-.19-.015l23.981-41.539a1.679,1.679,0,0,1,2.923,0l16.094,27.876.771,1.334Z" transform="translate(-3736.71 13022.234)" fill="#fff"/>
    <path id="Path_203" data-name="Path 203" d="M397.411,409.337H380.1l8.5-12.344.612-.889.305-.445.771,1.334Z" transform="translate(-3615 13236)" opacity="0.2" style="isolation: isolate"/>
    <path id="Path_204" data-name="Path 204" d="M547.353,623.1H503.5l8.5-12.344.612-.889,11.074-16.087a2.241,2.241,0,0,1,3.326-.2,1.99,1.99,0,0,1,.159.2Z" transform="translate(-3736.71 13022.234)" fill="#fff"/>
    <circle id="Ellipse_79" data-name="Ellipse 79" cx="7.512" cy="7.512" r="7.512" transform="translate(-3229.921 13598.599)" fill="#fff"/>
    <rect id="Rectangle_59" data-name="Rectangle 59" width="16" height="16" transform="translate(-3276.42 13583.468)" fill="#3f3d56"/>
    <path id="Path_40" data-name="Path 40" d="M221.908,356.619a5.946,5.946,0,1,0,0,11.893H328.994a5.947,5.947,0,1,0,.2-11.892q-.1,0-.2,0Z" transform="translate(-3736.71 13022.234)" fill="#029162"/>
    <path id="Path_40-2" data-name="Path 40" d="M221.908,387.619a5.946,5.946,0,1,0,0,11.893H328.994a5.947,5.947,0,1,0,.2-11.892q-.1,0-.2,0Z" transform="translate(-3736.71 13022.234)" fill="#029162"/>
    <path id="Path_40-3" data-name="Path 40" d="M221.908,418.619a5.946,5.946,0,1,0,0,11.893H328.994a5.947,5.947,0,0,0,.2-11.892q-.1,0-.2,0Z" transform="translate(-3736.71 13022.234)" fill="#029162"/>
    <path id="Path_40-4" data-name="Path 40" d="M221.908,449.619a5.946,5.946,0,1,0,0,11.893H328.994a5.947,5.947,0,0,0,.2-11.892q-.1,0-.2,0Z" transform="translate(-3736.71 13022.234)" fill="#029162"/>
    <path id="Path_40-5" data-name="Path 40" d="M221.908,480.619a5.946,5.946,0,1,0,0,11.893H328.994a5.947,5.947,0,1,0,.2-11.892q-.1,0-.2,0Z" transform="translate(-3736.71 13022.234)" fill="#029162"/>
    <path id="Path_40-6" data-name="Path 40" d="M221.908,511.619a5.946,5.946,0,1,0,0,11.893H328.994a5.947,5.947,0,1,0,.2-11.892q-.1,0-.2,0Z" transform="translate(-3736.71 13022.234)" fill="#029162"/>
    <path id="Path_205" data-name="Path 205" d="M183.637,373.6a11,11,0,1,1,11-11A11,11,0,0,1,183.637,373.6Zm0-20a9,9,0,1,0,9,9,9,9,0,0,0-9-9Z" transform="translate(-3736.71 13022.234)" fill="#e6e6e6"/>
    <path id="Path_206" data-name="Path 206" d="M183.637,404.6a11,11,0,1,1,11-11A11,11,0,0,1,183.637,404.6Zm0-20a9,9,0,1,0,9,9,9,9,0,0,0-9-9Z" transform="translate(-3736.71 13022.234)" fill="#e6e6e6"/>
    <path id="Path_207" data-name="Path 207" d="M183.637,435.566a11,11,0,1,1,11-11A11,11,0,0,1,183.637,435.566Zm0-20a9,9,0,1,0,9,9,9,9,0,0,0-9-9Z" transform="translate(-3736.71 13022.234)" fill="#e6e6e6"/>
    <path id="Path_208" data-name="Path 208" d="M183.637,466.566a11,11,0,1,1,11-11,11,11,0,0,1-11,11Zm0-20a9,9,0,1,0,9,9,9,9,0,0,0-9-9Z" transform="translate(-3736.71 13022.234)" fill="#e6e6e6"/>
    <path id="Path_209" data-name="Path 209" d="M183.637,497.566a11,11,0,1,1,11-11,11,11,0,0,1-11,11Zm0-20a9,9,0,1,0,9,9,9,9,0,0,0-9-9Z" transform="translate(-3736.71 13022.234)" fill="#e6e6e6"/>
    <path id="Path_210" data-name="Path 210" d="M183.637,528.566a11,11,0,1,1,11-11A11,11,0,0,1,183.637,528.566Zm0-20a9,9,0,1,0,9,9,9,9,0,0,0-9-9Z" transform="translate(-3736.71 13022.234)" fill="#e6e6e6"/>
    <circle id="Ellipse_80" data-name="Ellipse 80" cx="5" cy="5" r="5" transform="translate(-3558.073 13379.831)" fill="#6c63ff"/>
    <circle id="Ellipse_81" data-name="Ellipse 81" cx="5" cy="5" r="5" transform="translate(-3558.073 13441.831)" fill="#6c63ff"/>
    <circle id="Ellipse_82" data-name="Ellipse 82" cx="5" cy="5" r="5" transform="translate(-3558.073 13472.831)" fill="#6c63ff"/>
    <circle id="Ellipse_84" data-name="Ellipse 84" cx="8.5" cy="8.5" r="8.5" transform="translate(-3595.71 13249.234)" fill="#e6e6e6"/>
    <circle id="Ellipse_85" data-name="Ellipse 85" cx="8.5" cy="8.5" r="8.5" transform="translate(-3571.06 13249.234)" fill="#e6e6e6"/>
    <circle id="Ellipse_86" data-name="Ellipse 86" cx="8.5" cy="8.5" r="8.5" transform="translate(-3546.41 13249.234)" fill="#e6e6e6"/>
  </g>
</svg>
