<svg xmlns="http://www.w3.org/2000/svg" width="1645" height="1640" viewBox="0 0 1645 1640">
  <g id="Group_79" data-name="Group 79" transform="translate(-3415 -16640)">
    <ellipse id="Ellipse_123" data-name="Ellipse 123" cx="822.5" cy="820" rx="822.5" ry="820" transform="translate(3415 16640)" fill="none"/>
    <ellipse id="Ellipse_124" data-name="Ellipse 124" cx="400" cy="398.784" rx="400" ry="398.784" transform="translate(3838 17061)" fill="none"/>
    <circle id="Ellipse_125" data-name="Ellipse 125" cx="25" cy="25" r="25" transform="translate(3649 17011)" fill="#fef000"/>
    <circle id="Ellipse_126" data-name="Ellipse 126" cx="25" cy="25" r="25" transform="translate(3625 16922)" fill="#fef000"/>
    <circle id="Ellipse_127" data-name="Ellipse 127" cx="25" cy="25" r="25" transform="translate(3724 16911)" fill="#fef000"/>
    <circle id="Ellipse_128" data-name="Ellipse 128" cx="25" cy="25" r="25" transform="translate(3738 16829)" fill="#fef000"/>
    <circle id="Ellipse_129" data-name="Ellipse 129" cx="25" cy="25" r="25" transform="translate(3829 16854)" fill="#fef000"/>
    <circle id="Ellipse_130" data-name="Ellipse 130" cx="25" cy="25" r="25" transform="translate(3555 17036)" fill="#fef000"/>
    <circle id="Ellipse_131" data-name="Ellipse 131" cx="25" cy="25" r="25" transform="translate(3555 17036)" fill="#fef000"/>
    <circle id="Ellipse_132" data-name="Ellipse 132" cx="25" cy="25" r="25" transform="translate(3555 17036)" fill="#fef000"/>
    <circle id="Ellipse_134" data-name="Ellipse 134" cx="25" cy="25" r="25" transform="translate(3450 17289)" fill="#fef000"/>
    <circle id="Ellipse_135" data-name="Ellipse 135" cx="25" cy="25" r="25" transform="translate(3542 17239)" fill="#fef000"/>
    <circle id="Ellipse_136" data-name="Ellipse 136" cx="25" cy="25" r="25" transform="translate(3492 17157)" fill="#fef000"/>
    <circle id="Ellipse_137" data-name="Ellipse 137" cx="25" cy="25" r="25" transform="translate(3580 17132)" fill="#fef000"/>
    <circle id="Ellipse_139" data-name="Ellipse 139" cx="25" cy="25" r="25" transform="translate(3512 17368)" fill="#fef000"/>
    <circle id="Ellipse_141" data-name="Ellipse 141" cx="25" cy="25" r="25" transform="translate(3450 17565)" fill="#fef000"/>
    <circle id="Ellipse_142" data-name="Ellipse 142" cx="25" cy="25" r="25" transform="translate(3517 17489)" fill="#fef000"/>
    <circle id="Ellipse_143" data-name="Ellipse 143" cx="25" cy="25" r="25" transform="translate(3437 17427)" fill="#fef000"/>
    <circle id="Ellipse_147" data-name="Ellipse 147" cx="25" cy="25" r="25" transform="translate(3542 17618)" fill="#fef000"/>
    <circle id="Ellipse_149" data-name="Ellipse 149" cx="25" cy="25" r="25" transform="translate(3483 17703)" fill="#fef000"/>
    <circle id="Ellipse_150" data-name="Ellipse 150" cx="25" cy="25" r="25" transform="translate(3586 17735)" fill="#fef000"/>
    <circle id="Ellipse_151" data-name="Ellipse 151" cx="25" cy="25" r="25" transform="translate(3724 18042)" fill="#fef000"/>
    <circle id="Ellipse_152" data-name="Ellipse 152" cx="25" cy="25" r="25" transform="translate(3738 17934)" fill="#fef000"/>
    <circle id="Ellipse_153" data-name="Ellipse 153" cx="25" cy="25" r="25" transform="translate(3546 17831)" fill="#fef000"/>
    <circle id="Ellipse_154" data-name="Ellipse 154" cx="25" cy="25" r="25" transform="translate(3649 17845)" fill="#fef000"/>
    <circle id="Ellipse_155" data-name="Ellipse 155" cx="25" cy="25" r="25" transform="translate(3624 17942)" fill="#fef000"/>
    <circle id="Ellipse_156" data-name="Ellipse 156" cx="25" cy="25" r="25" transform="translate(3838 18007)" fill="#fef000"/>
    <circle id="Ellipse_157" data-name="Ellipse 157" cx="25" cy="25" r="25" transform="translate(3856 18117)" fill="#fef000"/>
    <circle id="Ellipse_158" data-name="Ellipse 158" cx="25" cy="25" r="25" transform="translate(3958 18076)" fill="#fef000"/>
    <circle id="Ellipse_159" data-name="Ellipse 159" cx="25" cy="25" r="25" transform="translate(3997 18179)" fill="#fef000"/>
    <circle id="Ellipse_160" data-name="Ellipse 160" cx="25" cy="25" r="25" transform="translate(4101 18126)" fill="#fef000"/>
    <circle id="Ellipse_161" data-name="Ellipse 161" cx="25" cy="25" r="25" transform="translate(4151 18204)" fill="#fef000"/>
    <circle id="Ellipse_162" data-name="Ellipse 162" cx="25" cy="25" r="25" transform="translate(4227 18136)" fill="#fef000"/>
    <circle id="Ellipse_163" data-name="Ellipse 163" cx="25" cy="25" r="25" transform="translate(4305 18204)" fill="#fef000"/>
    <circle id="Ellipse_164" data-name="Ellipse 164" cx="25" cy="25" r="25" transform="translate(4370 18117)" fill="#fef000"/>
    <circle id="Ellipse_165" data-name="Ellipse 165" cx="25" cy="25" r="25" transform="translate(4459 18167)" fill="#fef000"/>
    <circle id="Ellipse_166" data-name="Ellipse 166" cx="25" cy="25" r="25" transform="translate(4504 18092)" fill="#fef000"/>
    <circle id="Ellipse_167" data-name="Ellipse 167" cx="25" cy="25" r="25" transform="translate(4595 18111)" fill="#fef000"/>
    <circle id="Ellipse_168" data-name="Ellipse 168" cx="25" cy="25" r="25" transform="translate(4620 18026)" fill="#fef000"/>
    <circle id="Ellipse_169" data-name="Ellipse 169" cx="25" cy="25" r="25" transform="translate(4714 18026)" fill="#fef000"/>
    <circle id="Ellipse_170" data-name="Ellipse 170" cx="25" cy="25" r="25" transform="translate(4722 17937)" fill="#fef000"/>
    <circle id="Ellipse_171" data-name="Ellipse 171" cx="25" cy="25" r="25" transform="translate(4814 17926)" fill="#fef000"/>
    <circle id="Ellipse_172" data-name="Ellipse 172" cx="25" cy="25" r="25" transform="translate(4795 17829)" fill="#fef000"/>
    <circle id="Ellipse_173" data-name="Ellipse 173" cx="25" cy="25" r="25" transform="translate(4891 17809)" fill="#fef000"/>
    <circle id="Ellipse_174" data-name="Ellipse 174" cx="25" cy="25" r="25" transform="translate(4859 17716)" fill="#fef000"/>
    <circle id="Ellipse_175" data-name="Ellipse 175" cx="25" cy="25" r="25" transform="translate(4941 17682)" fill="#fef000"/>
    <circle id="Ellipse_176" data-name="Ellipse 176" cx="25" cy="25" r="25" transform="translate(4901 17599)" fill="#fef000"/>
    <circle id="Ellipse_177" data-name="Ellipse 177" cx="25" cy="25" r="25" transform="translate(4972 17540)" fill="#fef000"/>
    <circle id="Ellipse_178" data-name="Ellipse 178" cx="25" cy="25" r="25" transform="translate(4916 17472)" fill="#fef000"/>
    <circle id="Ellipse_179" data-name="Ellipse 179" cx="25" cy="25" r="25" transform="translate(4989 17410)" fill="#fef000"/>
    <circle id="Ellipse_180" data-name="Ellipse 180" cx="25" cy="25" r="25" transform="translate(4916 17345)" fill="#fef000"/>
    <circle id="Ellipse_181" data-name="Ellipse 181" cx="25" cy="25" r="25" transform="translate(4972 17280)" fill="#fef000"/>
    <circle id="Ellipse_182" data-name="Ellipse 182" cx="25" cy="25" r="25" transform="translate(4883 17238)" fill="#fef000"/>
    <circle id="Ellipse_183" data-name="Ellipse 183" cx="25" cy="25" r="25" transform="translate(4933 17150)" fill="#fef000"/>
    <circle id="Ellipse_184" data-name="Ellipse 184" cx="25" cy="25" r="25" transform="translate(4847 17118)" fill="#fef000"/>
    <circle id="Ellipse_185" data-name="Ellipse 185" cx="25" cy="25" r="25" transform="translate(4881 17036)" fill="#fef000"/>
    <circle id="Ellipse_186" data-name="Ellipse 186" cx="25" cy="25" r="25" transform="translate(4780 17030)" fill="#fef000"/>
    <circle id="Ellipse_187" data-name="Ellipse 187" cx="25" cy="25" r="25" transform="translate(4805 16936)" fill="#fef000"/>
    <circle id="Ellipse_188" data-name="Ellipse 188" cx="25" cy="25" r="25" transform="translate(4706 16936)" fill="#fef000"/>
    <circle id="Ellipse_189" data-name="Ellipse 189" cx="25" cy="25" r="25" transform="translate(4713 16844)" fill="#fef000"/>
    <circle id="Ellipse_190" data-name="Ellipse 190" cx="25" cy="25" r="25" transform="translate(4613 16869)" fill="#fef000"/>
    <circle id="Ellipse_191" data-name="Ellipse 191" cx="25" cy="25" r="25" transform="translate(4613 16771)" fill="#fef000"/>
    <circle id="Ellipse_192" data-name="Ellipse 192" cx="25" cy="25" r="25" transform="translate(4505 16806)" fill="#fef000"/>
    <circle id="Ellipse_193" data-name="Ellipse 193" cx="25" cy="25" r="25" transform="translate(3838 16761)" fill="#fef000"/>
    <circle id="Ellipse_194" data-name="Ellipse 194" cx="25" cy="25" r="25" transform="translate(3938 16786)" fill="#fef000"/>
    <circle id="Ellipse_195" data-name="Ellipse 195" cx="25" cy="25" r="25" transform="translate(3960 16702)" fill="#fef000"/>
    <circle id="Ellipse_196" data-name="Ellipse 196" cx="25" cy="25" r="25" transform="translate(4051 16756)" fill="#fef000"/>
    <circle id="Ellipse_197" data-name="Ellipse 197" cx="25" cy="25" r="25" transform="translate(4090 16668)" fill="#fef000"/>
    <circle id="Ellipse_198" data-name="Ellipse 198" cx="25" cy="25" r="25" transform="translate(4170 16736)" fill="#fef000"/>
    <circle id="Ellipse_199" data-name="Ellipse 199" cx="25" cy="25" r="25" transform="translate(4220 16661)" fill="#fef000"/>
    <circle id="Ellipse_200" data-name="Ellipse 200" cx="25" cy="25" r="25" transform="translate(4278 16746)" fill="#fef000"/>
    <circle id="Ellipse_201" data-name="Ellipse 201" cx="25" cy="25" r="25" transform="translate(4350 16668)" fill="#fef000"/>
    <circle id="Ellipse_202" data-name="Ellipse 202" cx="25" cy="25" r="25" transform="translate(4397 16761)" fill="#fef000"/>
    <circle id="Ellipse_203" data-name="Ellipse 203" cx="25" cy="25" r="25" transform="translate(4480 16711)" fill="#fef000"/>
    <circle id="Ellipse_204" data-name="Ellipse 204" cx="25" cy="25" r="25" transform="translate(4020 16839)" fill="#fef000"/>
    <circle id="Ellipse_205" data-name="Ellipse 205" cx="25" cy="25" r="25" transform="translate(3913 16879)" fill="#fef000"/>
    <circle id="Ellipse_206" data-name="Ellipse 206" cx="25" cy="25" r="25" transform="translate(3814 16947)" fill="#fef000"/>
    <circle id="Ellipse_207" data-name="Ellipse 207" cx="25" cy="25" r="25" transform="translate(3743 17011)" fill="#fef000"/>
    <circle id="Ellipse_208" data-name="Ellipse 208" cx="25" cy="25" r="25" transform="translate(3684 17099)" fill="#fef000"/>
    <circle id="Ellipse_209" data-name="Ellipse 209" cx="25" cy="25" r="25" transform="translate(3642 17207)" fill="#fef000"/>
    <circle id="Ellipse_210" data-name="Ellipse 210" cx="25" cy="25" r="25" transform="translate(3611 17314)" fill="#fef000"/>
    <circle id="Ellipse_211" data-name="Ellipse 211" cx="25" cy="25" r="25" transform="translate(3599 17429)" fill="#fef000"/>
    <circle id="Ellipse_212" data-name="Ellipse 212" cx="25" cy="25" r="25" transform="translate(3592 17536)" fill="#fef000"/>
    <circle id="Ellipse_213" data-name="Ellipse 213" cx="25" cy="25" r="25" transform="translate(3642 17643)" fill="#fef000"/>
    <circle id="Ellipse_214" data-name="Ellipse 214" cx="25" cy="25" r="25" transform="translate(3692 17746)" fill="#fef000"/>
    <circle id="Ellipse_215" data-name="Ellipse 215" cx="25" cy="25" r="25" transform="translate(3763 17826)" fill="#fef000"/>
    <circle id="Ellipse_216" data-name="Ellipse 216" cx="25" cy="25" r="25" transform="translate(3852 17897)" fill="#fef000"/>
    <circle id="Ellipse_217" data-name="Ellipse 217" cx="25" cy="25" r="25" transform="translate(3952 17973)" fill="#fef000"/>
    <circle id="Ellipse_218" data-name="Ellipse 218" cx="25" cy="25" r="25" transform="translate(4065 18026)" fill="#fef000"/>
    <circle id="Ellipse_219" data-name="Ellipse 219" cx="25" cy="25" r="25" transform="translate(4179 18042)" fill="#fef000"/>
    <circle id="Ellipse_220" data-name="Ellipse 220" cx="25" cy="25" r="25" transform="translate(4293 18051)" fill="#fef000"/>
    <circle id="Ellipse_221" data-name="Ellipse 221" cx="25" cy="25" r="25" transform="translate(4420 18026)" fill="#fef000"/>
    <circle id="Ellipse_222" data-name="Ellipse 222" cx="25" cy="25" r="25" transform="translate(4534 17982)" fill="#fef000"/>
    <circle id="Ellipse_223" data-name="Ellipse 223" cx="25" cy="25" r="25" transform="translate(4620 17912)" fill="#fef000"/>
    <circle id="Ellipse_224" data-name="Ellipse 224" cx="25" cy="25" r="25" transform="translate(4699 17823)" fill="#fef000"/>
    <circle id="Ellipse_225" data-name="Ellipse 225" cx="25" cy="25" r="25" transform="translate(4758 17726)" fill="#fef000"/>
    <circle id="Ellipse_226" data-name="Ellipse 226" cx="25" cy="25" r="25" transform="translate(4808 17629)" fill="#fef000"/>
    <circle id="Ellipse_227" data-name="Ellipse 227" cx="25" cy="25" r="25" transform="translate(4833 17516)" fill="#fef000"/>
    <circle id="Ellipse_228" data-name="Ellipse 228" cx="25" cy="25" r="25" transform="translate(4833 17403)" fill="#fef000"/>
    <circle id="Ellipse_229" data-name="Ellipse 229" cx="25" cy="25" r="25" transform="translate(4808 17290)" fill="#fef000"/>
    <circle id="Ellipse_230" data-name="Ellipse 230" cx="25" cy="25" r="25" transform="translate(4783 17200)" fill="#fef000"/>
    <circle id="Ellipse_231" data-name="Ellipse 231" cx="25" cy="25" r="25" transform="translate(4745 17103)" fill="#fef000"/>
    <circle id="Ellipse_232" data-name="Ellipse 232" cx="25" cy="25" r="25" transform="translate(4670 17028)" fill="#fef000"/>
    <circle id="Ellipse_233" data-name="Ellipse 233" cx="25" cy="25" r="25" transform="translate(4588 16967)" fill="#fef000"/>
    <circle id="Ellipse_234" data-name="Ellipse 234" cx="25" cy="25" r="25" transform="translate(4505 16911)" fill="#fef000"/>
    <circle id="Ellipse_235" data-name="Ellipse 235" cx="25" cy="25" r="25" transform="translate(4411 16864)" fill="#fef000"/>
    <circle id="Ellipse_236" data-name="Ellipse 236" cx="25" cy="25" r="25" transform="translate(4317 16839)" fill="#fef000"/>
    <circle id="Ellipse_237" data-name="Ellipse 237" cx="25" cy="25" r="25" transform="translate(4223 16829)" fill="#fef000"/>
    <circle id="Ellipse_238" data-name="Ellipse 238" cx="25" cy="25" r="25" transform="translate(4129 16819)" fill="#fef000"/>
  </g>
</svg>
