<svg xmlns="http://www.w3.org/2000/svg" width="2013" height="1446" viewBox="0 0 2013 1446">
  <g id="Group_106" data-name="Group 106" transform="translate(-7954 -9354)">
    <circle id="Ellipse_266" data-name="Ellipse 266" cx="100" cy="100" r="100" transform="translate(9767 9354)" fill="#fef000"/>
    <circle id="Ellipse_265" data-name="Ellipse 265" cx="100" cy="100" r="100" transform="translate(9239 10230)" fill="#fef000"/>
    <circle id="Ellipse_264" data-name="Ellipse 264" cx="100" cy="100" r="100" transform="translate(7976 10600)" fill="#fef000" opacity="0.967"/>
    <circle id="Ellipse_262" data-name="Ellipse 262" cx="100" cy="100" r="100" transform="translate(8482 9860)" fill="#fef000"/>
    <g id="Ellipse_257" data-name="Ellipse 257" transform="translate(8513 9884)" fill="none" stroke="#000" stroke-width="10">
      <circle cx="100" cy="100" r="100" stroke="none"/>
      <circle cx="100" cy="100" r="95" fill="none"/>
    </g>
    <g id="Ellipse_258" data-name="Ellipse 258" transform="translate(7954 10568)" fill="none" stroke="#000" stroke-width="10">
      <circle cx="100" cy="100" r="100" stroke="none"/>
      <circle cx="100" cy="100" r="95" fill="none"/>
    </g>
    <g id="Ellipse_260" data-name="Ellipse 260" transform="translate(9767 9394)" fill="none" stroke="#000" stroke-width="10">
      <circle cx="100" cy="100" r="100" stroke="none"/>
      <circle cx="100" cy="100" r="95" fill="none"/>
    </g>
    <g id="Ellipse_261" data-name="Ellipse 261" transform="translate(9206 10210)" fill="none" stroke="#000" stroke-width="10">
      <circle cx="100" cy="100" r="100" stroke="none"/>
      <circle cx="100" cy="100" r="95" fill="none"/>
    </g>
    <path id="Path_344" data-name="Path 344" d="M5.277,340.873,611.891-4.512" transform="translate(7988.339 10283.321) rotate(-21)" fill="none" stroke="#000" stroke-width="10"/>
    <path id="Path_346" data-name="Path 346" d="M5.277,654.446,452.847-4.512" transform="translate(9357.237 9574.922)" fill="none" stroke="#000" stroke-width="10"/>
    <path id="Path_347" data-name="Path 347" d="M5.277-4.512,525.746,249.766" transform="matrix(1, -0.017, 0.017, 1, 8692.986, 10027.563)" fill="none" stroke="#000" stroke-width="10"/>
    <g id="Ellipse_263" data-name="Ellipse 263" transform="translate(7954 10568)" fill="none" stroke="#000" stroke-width="10">
      <circle cx="100" cy="100" r="100" stroke="none"/>
      <circle cx="100" cy="100" r="95" fill="none"/>
    </g>
  </g>
</svg>
