<svg xmlns="http://www.w3.org/2000/svg" width="11135" height="6334.269" viewBox="0 0 11135 6334.269">
  <g id="Group_174" data-name="Group 174" transform="translate(12378 -9193)">
    <rect id="Rectangle_60" data-name="Rectangle 60" width="11135" height="6334" transform="translate(-12378 9193)" fill="none"/>
    <path id="Path_352" data-name="Path 352" d="M0,200Z" transform="translate(-6044 15007)"/>
    <rect id="Rectangle_822" data-name="Rectangle 822" width="300" height="30" rx="15" transform="translate(-1467.254 14375.303) rotate(-138)" fill="#fef000"/>
    <rect id="Rectangle_828" data-name="Rectangle 828" width="300" height="30" rx="15" transform="translate(-1652.18 15326.529) rotate(138)" fill="#fef000"/>
    <rect id="Rectangle_829" data-name="Rectangle 829" width="300" height="30" rx="15" transform="translate(-1263.254 14879.269) rotate(-138)"/>
    <rect id="Rectangle_765" data-name="Rectangle 765" width="300" height="30" rx="15" transform="translate(-3122.43 14026.061) rotate(51)" fill="#fef000"/>
    <rect id="Rectangle_766" data-name="Rectangle 766" width="300" height="30" rx="15" transform="translate(-4789.779 15130.487) rotate(130)" fill="#fef000"/>
    <rect id="Rectangle_767" data-name="Rectangle 767" width="300" height="30" rx="15" transform="matrix(0.017, -1, 1, 0.017, -5921.305, 15453.469)" fill="#fef000"/>
    <rect id="Rectangle_768" data-name="Rectangle 768" width="300" height="30" rx="15" transform="matrix(0.985, 0.174, -0.174, 0.985, -5300.805, 14277.934)"/>
    <rect id="Rectangle_769" data-name="Rectangle 769" width="300" height="30" rx="15" transform="translate(-4825.743 13255.15) rotate(16)" fill="#fef000"/>
    <rect id="Rectangle_771" data-name="Rectangle 771" width="300" height="30" rx="15" transform="translate(-3003.625 15124.556) rotate(-23)"/>
    <rect id="Rectangle_772" data-name="Rectangle 772" width="300" height="30" rx="15" transform="translate(-2336.52 13854.698) rotate(97)" fill="#fef000"/>
    <rect id="Rectangle_773" data-name="Rectangle 773" width="300" height="30" rx="15" transform="translate(-3908.289 15360.417) rotate(-152)" fill="#fef000"/>
    <rect id="Rectangle_777" data-name="Rectangle 777" width="300" height="30" rx="15" transform="translate(-3803.484 13001.944) rotate(65)"/>
    <rect id="Rectangle_781" data-name="Rectangle 781" width="300" height="30" rx="15" transform="translate(-3894.276 14029.524) rotate(159)"/>
    <rect id="Rectangle_782" data-name="Rectangle 782" width="300" height="30" rx="15" transform="translate(-3381.305 14743.097) rotate(-169)" fill="#fef000"/>
    <rect id="Rectangle_785" data-name="Rectangle 785" width="300" height="30" rx="15" transform="matrix(-0.602, 0.799, -0.799, -0.602, -2655.436, 13178.438)" fill="#fef000"/>
    <rect id="Rectangle_791" data-name="Rectangle 791" width="300" height="30" rx="15" transform="translate(-1976.508 12743.345) rotate(-80)"/>
    <rect id="Rectangle_821" data-name="Rectangle 821" width="300" height="30" rx="15" transform="translate(-3060.254 12670.817) rotate(-138)" fill="#fef000"/>
    <rect id="Rectangle_825" data-name="Rectangle 825" width="300" height="30" rx="15" transform="translate(-1656.254 13589.269) rotate(-138)"/>
    <rect id="Rectangle_830" data-name="Rectangle 830" width="300" height="30" rx="15" transform="translate(-2010.307 14854.098) rotate(-169)" fill="#fef000"/>
  </g>
</svg>
