<svg xmlns="http://www.w3.org/2000/svg" width="1448" height="525" viewBox="0 0 1448 525">
  <g id="Group_12" data-name="Group 12" transform="translate(-12469 -12258)">
    <g id="Rectangle_41" data-name="Rectangle 41" transform="translate(12469 12258)" fill="#fff" stroke="#707070" stroke-width="1">
      <rect width="1448" height="525" stroke="none"/>
      <rect x="0.5" y="0.5" width="1447" height="524" fill="none"/>
    </g>
    <g id="Group_11" data-name="Group 11" transform="translate(1982 -439)">
      <rect id="Rectangle_40" data-name="Rectangle 40" width="554" height="226" transform="translate(10934 12888.337)" fill="#fff"/>
      <path id="Path_15" data-name="Path 15" d="M631.121,224.8h-41.3a144.46,144.46,0,0,1,0-49.247h41.3a88.612,88.612,0,0,0,0,49.247Z" transform="translate(10382.5 12747.668)" fill="#017cfd"/>
      <path id="Path_16" data-name="Path 16" d="M666.879,245.781h41.3a144.46,144.46,0,0,0,0-49.247h-41.3a88.612,88.612,0,0,1,0,49.247Z" transform="translate(10382.5 12747.668)" fill="#ff3500"/>
      <path id="Path_17" data-name="Path 17" d="M758.714,173.534A370.784,370.784,0,0,1,764.451,277.4q-1.174,13.56-3.355,27.007c-.663,4.075-1.418,8.131-2.194,12.186-.445,2.323-1.378,5.216.083,7.4,2.846,4.26,12.6,3.148,16.895,3.287,8.94.289,17.893.338,26.836.494l26.9.47,12.954.226c4.414.077,9.248.761,13.627.2,5.763-.743,4.359-6.778,4.272-11.262q-.259-13.3-.709-26.589-1.783-52.676-6.566-105.192c-.407-4.467-.153-9.81-1.356-14.129-.486-1.746-.97-2.251-2.866-2.564-4.344-.718-9.52.038-13.915.069l-14.695.1-59.759.416a1.5,1.5,0,0,0,0,3l48.983-.341,21.552-.15,11.756-.082c2.416-.017,4.674-.748,6.19,1.91.959,1.682.566,5.888.748,7.846q4.39,47.083,6.369,94.35.494,11.812.838,23.629.143,4.924.26,9.848.07,2.955.131,5.909c.042,2.032.883,6.014.145,7.88-1.573,3.98-8.586,2.268-12.015,2.208l-11.958-.209L809.69,324.9l-23.915-.417c-3.954-.069-7.913-.1-11.865-.268-1.311-.056-2.624-.119-3.933-.212-3.9-.278-8.095.644-8.558-4.744-.286-3.325,1.532-7.91,2.1-11.235q.962-5.634,1.748-11.3,1.47-10.578,2.342-21.226a373.927,373.927,0,0,0-6-102.768c-.374-1.892-3.266-1.091-2.893.8Z" transform="translate(10382.5 12747.668)"/>
      <path id="Path_18" data-name="Path 18" d="M955.714,173.534A370.784,370.784,0,0,1,961.451,277.4q-1.174,13.56-3.355,27.007c-.663,4.075-1.418,8.131-2.194,12.186-.445,2.323-1.378,5.216.083,7.4,2.846,4.26,12.6,3.148,16.895,3.287,8.94.289,17.893.338,26.836.494l26.9.47,12.954.226c4.414.077,9.248.761,13.627.2,5.763-.743,4.359-6.778,4.272-11.262q-.259-13.3-.709-26.589-1.783-52.676-6.566-105.192c-.407-4.467-.153-9.81-1.356-14.129-.486-1.746-.97-2.251-2.866-2.564-4.344-.718-9.52.038-13.915.069l-14.695.1-59.759.416a1.5,1.5,0,0,0,0,3l48.983-.341,21.552-.15,11.756-.082c2.416-.017,4.674-.748,6.19,1.91.959,1.682.566,5.888.748,7.846q4.39,47.083,6.369,94.35.494,11.812.838,23.629.143,4.924.26,9.848.07,2.955.131,5.909c.042,2.032.883,6.014.145,7.88-1.573,3.98-8.586,2.268-12.015,2.208l-11.958-.209-23.915-.417-23.915-.417c-3.954-.069-7.913-.1-11.865-.268-1.311-.056-2.624-.119-3.933-.212-3.9-.278-8.095.644-8.558-4.744-.286-3.325,1.532-7.91,2.1-11.235q.962-5.634,1.748-11.3,1.47-10.578,2.342-21.226a373.927,373.927,0,0,0-6-102.768c-.374-1.892-3.266-1.091-2.893.8Z" transform="translate(10382.5 12747.668)"/>
      <path id="Path_19" data-name="Path 19" d="M772.508,181.255H792.35a1.5,1.5,0,0,0,0-3H772.508a1.5,1.5,0,0,0,0,3Z" transform="translate(10382.5 12747.668)"/>
      <path id="Path_20" data-name="Path 20" d="M772.507,188.023l18.7-.707c1.924-.073,1.934-3.073,0-3l-18.7.707C770.582,185.1,770.573,188.1,772.507,188.023Z" transform="translate(10382.5 12747.668)"/>
      <path id="Path_21" data-name="Path 21" d="M772.508,193.728H790.65a1.5,1.5,0,0,0,0-3H772.508a1.5,1.5,0,0,0,0,3Z" transform="translate(10382.5 12747.668)"/>
      <path id="Path_22" data-name="Path 22" d="M832.627,179.847c-4.072-2.125-7.768,1.369-8.341,5.361-.28,1.952-.341,4.62.9,6.278,1.27,1.693,3.713,2.4,5.741,2.528,3.873.239,7.993-1.921,8.946-5.887a7.351,7.351,0,0,0-4.574-8.711c-1.828-.633-2.614,2.264-.8,2.893a4.209,4.209,0,0,1,2.567,4.355,4.815,4.815,0,0,1-4.009,4.206c-2.476.57-5.378-.042-5.857-2.835-.358-2.09.777-7.232,3.909-5.6,1.71.892,3.228-1.7,1.514-2.59Z" transform="translate(10382.5 12747.668)"/>
      <path id="Path_23" data-name="Path 23" d="M969.508,181.255H989.35a1.5,1.5,0,0,0,0-3H969.508a1.5,1.5,0,0,0,0,3Z" transform="translate(10382.5 12747.668)"/>
      <path id="Path_24" data-name="Path 24" d="M969.507,188.023l18.7-.707c1.924-.073,1.934-3.073,0-3l-18.7.707C967.582,185.1,967.573,188.1,969.507,188.023Z" transform="translate(10382.5 12747.668)"/>
      <path id="Path_25" data-name="Path 25" d="M969.508,193.728H987.65a1.5,1.5,0,0,0,0-3H969.508a1.5,1.5,0,0,0,0,3Z" transform="translate(10382.5 12747.668)"/>
      <path id="Path_26" data-name="Path 26" d="M1029.627,179.847c-4.072-2.125-7.768,1.369-8.341,5.361-.28,1.952-.341,4.62.9,6.278,1.27,1.693,3.713,2.4,5.741,2.528,3.873.239,7.993-1.921,8.946-5.887a7.351,7.351,0,0,0-4.574-8.711c-1.828-.633-2.613,2.264-.8,2.893a4.208,4.208,0,0,1,2.567,4.355,4.815,4.815,0,0,1-4.009,4.206c-2.476.57-5.378-.042-5.857-2.835-.358-2.09.777-7.232,3.909-5.6,1.71.892,3.228-1.7,1.514-2.59Z" transform="translate(10382.5 12747.668)"/>
      <path id="Path_27" data-name="Path 27" d="M776.476,210.18q32.738.344,65.41-2.022l-1.446-1.9c-3.565,9.034-3.467,18.556-2.995,28.112.118,2.394.87,5.623.384,7.995-.611,2.982-3.288,2.269-5.951,2.356q-8.8.284-17.6.409-8.312.117-16.625.093-3.912-.012-7.823-.056c-3.062-.034-6.543.855-7.334-2.692-.507-2.272,0-5.261.005-7.6l.006-8.547.011-17.094a1.5,1.5,0,0,0-3,0l-.014,20.892-.006,9.5c0,1.886-.393,4.165.311,5.956,1.62,4.119,8.621,2.574,11.977,2.6q10.268.095,20.537-.031t20.531-.466c2.948-.1,7.027.572,7.921-3.063.627-2.549-.1-5.872-.238-8.473-.153-2.968-.317-5.937-.356-8.909-.093-6.941.587-13.693,3.151-20.188a1.507,1.507,0,0,0-1.446-1.9q-32.655,2.365-65.41,2.022a1.5,1.5,0,0,0,0,3Z" transform="translate(10382.5 12747.668)"/>
      <path id="Path_28" data-name="Path 28" d="M782.7,211.81a220.122,220.122,0,0,1,27.263,11.773c7.906,4.086,18.257,8.549,23.7,15.852,1.14,1.531,3.746.036,2.59-1.514-5.556-7.457-15.122-11.845-23.157-16.084a225.408,225.408,0,0,0-29.6-12.92c-1.822-.649-2.606,2.249-.8,2.893Z" transform="translate(10382.5 12747.668)"/>
      <path id="Path_29" data-name="Path 29" d="M841.376,206.467c-9.914,4.239-18.313,12.407-27.172,18.459q-14.384,9.826-29.625,18.289c-1.686.941-.175,3.534,1.514,2.59q15.208-8.492,29.625-18.289c8.858-6.051,17.261-14.221,27.172-18.459,1.77-.757.243-3.342-1.514-2.59Z" transform="translate(10382.5 12747.668)"/>
      <path id="Path_30" data-name="Path 30" d="M973.476,210.18q32.738.344,65.41-2.022l-1.446-1.9c-3.565,9.034-3.467,18.556-2.995,28.112.118,2.394.87,5.623.384,7.995-.611,2.982-3.288,2.269-5.951,2.356q-8.8.284-17.6.409-8.312.117-16.625.093-3.912-.012-7.823-.056c-3.062-.034-6.543.855-7.334-2.692-.507-2.272,0-5.261.005-7.6l.006-8.547.011-17.094a1.5,1.5,0,0,0-3,0l-.014,20.892-.006,9.5c0,1.886-.393,4.165.311,5.956,1.62,4.119,8.621,2.574,11.977,2.6q10.268.095,20.537-.031t20.531-.466c2.948-.1,7.027.572,7.921-3.063.627-2.549-.1-5.872-.238-8.473-.153-2.968-.317-5.937-.356-8.909-.093-6.941.587-13.693,3.151-20.188a1.507,1.507,0,0,0-1.446-1.9q-32.655,2.365-65.41,2.022a1.5,1.5,0,0,0,0,3Z" transform="translate(10382.5 12747.668)"/>
      <path id="Path_31" data-name="Path 31" d="M979.7,211.81a220.12,220.12,0,0,1,27.263,11.773c7.906,4.086,18.257,8.549,23.7,15.852,1.14,1.531,3.746.036,2.59-1.514-5.556-7.457-15.122-11.845-23.157-16.084a225.418,225.418,0,0,0-29.6-12.92c-1.822-.649-2.606,2.249-.8,2.893Z" transform="translate(10382.5 12747.668)"/>
      <path id="Path_32" data-name="Path 32" d="M1038.376,206.467c-9.914,4.239-18.313,12.407-27.172,18.459q-14.384,9.826-29.625,18.289c-1.686.941-.175,3.534,1.514,2.59q15.208-8.492,29.625-18.289c8.858-6.051,17.261-14.221,27.172-18.459,1.77-.757.243-3.342-1.514-2.59Z" transform="translate(10382.5 12747.668)"/>
      <path id="Path_33" data-name="Path 33" d="M973.476,270.18q32.738.344,65.41-2.022l-1.446-1.9c-3.565,9.034-3.467,18.556-2.995,28.112.118,2.394.87,5.623.384,7.995-.611,2.982-3.288,2.269-5.951,2.356q-8.8.285-17.6.409-8.312.117-16.625.093-3.912-.012-7.823-.056c-3.062-.034-6.543.855-7.334-2.692-.507-2.272,0-5.261.005-7.6l.006-8.547.011-17.094a1.5,1.5,0,0,0-3,0l-.014,20.892-.006,9.5c0,1.886-.393,4.165.311,5.956,1.62,4.119,8.621,2.574,11.977,2.6q10.268.095,20.537-.031t20.531-.466c2.948-.1,7.027.572,7.921-3.063.627-2.549-.1-5.872-.238-8.473-.153-2.968-.317-5.937-.356-8.909-.093-6.941.587-13.693,3.151-20.188a1.507,1.507,0,0,0-1.446-1.9q-32.655,2.365-65.41,2.022a1.5,1.5,0,0,0,0,3Z" transform="translate(10382.5 12747.668)"/>
      <path id="Path_34" data-name="Path 34" d="M979.7,271.81a220.118,220.118,0,0,1,27.263,11.773c7.906,4.086,18.257,8.549,23.7,15.852,1.14,1.531,3.746.036,2.59-1.514-5.556-7.457-15.122-11.845-23.157-16.084a225.4,225.4,0,0,0-29.6-12.92C978.672,268.268,977.888,271.166,979.7,271.81Z" transform="translate(10382.5 12747.668)"/>
      <path id="Path_35" data-name="Path 35" d="M1038.376,266.467c-9.914,4.239-18.313,12.407-27.172,18.459q-14.384,9.826-29.625,18.289c-1.686.941-.175,3.534,1.514,2.59q15.208-8.492,29.625-18.289c8.858-6.051,17.261-14.221,27.172-18.459C1041.66,268.3,1040.133,265.716,1038.376,266.467Z" transform="translate(10382.5 12747.668)"/>
      <path id="Path_36" data-name="Path 36" d="M782.147,267.918q30.334.461,60.666-.242c1.927-.045,1.934-3.045,0-3q-30.329.7-60.666.242a1.5,1.5,0,0,0,0,3Z" transform="translate(10382.5 12747.668)"/>
      <path id="Path_37" data-name="Path 37" d="M783.848,281.52q31.184.5,62.366-.268c1.927-.047,1.934-3.047,0-3q-31.179.765-62.366.268C781.917,278.489,781.916,281.489,783.848,281.52Z" transform="translate(10382.5 12747.668)"/>
      <path id="Path_38" data-name="Path 38" d="M781.572,296.206l58.965-2.738c1.922-.089,1.933-3.09,0-3l-58.965,2.738C779.65,293.295,779.639,296.3,781.572,296.206Z" transform="translate(10382.5 12747.668)"/>
      <path id="Path_39" data-name="Path 39" d="M873.421,253.822h56.126a1.5,1.5,0,0,0,0-3H873.421a1.5,1.5,0,0,0,0,3Z" transform="translate(10382.5 12747.668)"/>
      <path id="Path_40" data-name="Path 40" d="M927.089,236.671l8.769,8c1,.915,3.761,2.805,4.384,4,1.288,2.475-.1,1.91-2.3,2.767a49.36,49.36,0,0,0-14.764,9.167c-1.451,1.279.677,3.394,2.121,2.121a45.833,45.833,0,0,1,13.44-8.4c1.769-.7,5.125-1.11,5.966-3.217,1.029-2.579-2.248-4.482-3.8-5.9L929.21,234.549c-1.424-1.3-3.551.816-2.121,2.121Z" transform="translate(10382.5 12747.668)"/>
      <path id="Path_41" data-name="Path 41" d="M790.879,353.781h41.3a144.46,144.46,0,0,0,0-49.247h-41.3A88.612,88.612,0,0,1,790.879,353.781Z" transform="translate(10382.5 12747.668)" fill="#fef000"/>
      <path id="Path_42" data-name="Path 42" d="M618.879,316.781h41.3a144.46,144.46,0,0,0,0-49.247h-41.3A88.612,88.612,0,0,1,618.879,316.781Z" transform="translate(10382.5 12747.668)" fill="#fef000"/>
      <path id="Path_43" data-name="Path 43" d="M879.879,208.781h41.3a144.46,144.46,0,0,0,0-49.247h-41.3a88.612,88.612,0,0,1,0,49.247Z" transform="translate(10382.5 12747.668)" fill="#017cfd"/>
    </g>
  </g>
</svg>
